<svg width="266" height="168" viewBox="0 0 266 168" fill="none" xmlns="http://www.w3.org/2000/svg">
<path d="M182.941 49.927L176.255 48.4955L177.457 48.7584C177.428 48.1741 177.399 47.5898 177.34 47.0348C177.311 46.6258 176.93 46.1876 176.519 46.0999L174.672 45.6617C174.261 45.5741 173.997 45.8078 174.026 46.2168C174.114 46.8303 174.173 47.4438 174.202 48.0865L150.39 42.974L168.543 14.9576L140.742 32.8367L134.935 5.95969L135.111 6.71924C135.111 6.71924 135.229 6.45631 135.287 6.31024C135.434 5.95967 135.258 5.66754 134.877 5.63833L133.645 0L124.965 40.1987L124.261 40.3447L100.214 16.3891L100.126 16.2431L126.372 33.6255L126.607 32.603L104.408 18.3173L104.906 18.6386C104.672 18.0835 104.437 17.4993 104.202 16.9442C104.056 16.5644 103.674 16.4768 103.381 16.7689C103.205 16.9442 103.029 17.1487 102.824 17.324L98.22 14.3734L101.475 19.369C101.475 19.369 101.475 19.6027 101.534 19.6903C101.827 20.2454 102.12 20.8005 102.413 21.3555C102.531 21.5892 102.765 21.6769 102.941 21.6477L102.824 21.4432L116.196 42.0684L83 49.1966L88.4545 50.3652C88.4839 51.154 88.5425 51.9427 88.6305 52.7315C88.6598 53.1405 89.041 53.5787 89.4516 53.6664L91.2991 54.1046C91.7097 54.1922 91.9736 53.9585 91.9443 53.5787C91.8563 52.8776 91.7976 52.1472 91.739 51.4169C91.739 51.3 91.6804 51.154 91.6217 51.0371L115.903 56.2664L102.15 77.5051L102.238 77.359C101.944 77.0669 101.68 76.7748 101.387 76.4826C101.123 76.1905 100.595 76.0736 100.214 76.2197C99.5982 76.4534 98.9824 76.6579 98.3959 76.8624C98.0147 76.9793 97.8974 77.359 98.1613 77.6804C98.6891 78.2939 99.217 78.8782 99.7742 79.4625C99.9795 79.6962 100.361 79.813 100.683 79.7838L97.3402 84.9255L102.062 81.8872C102.267 82.0625 102.443 82.2378 102.648 82.4131C102.971 82.676 103.528 82.7345 103.88 82.53L105.522 81.5951C105.874 81.3906 105.903 81.0108 105.61 80.7479C105.346 80.5434 105.111 80.3097 104.848 80.1052L125.727 66.6959L131.006 91.1189C131.006 91.1189 130.918 91.0897 130.859 91.0897C130.126 91.0897 129.422 91.0313 128.689 91.0021C128.308 90.9728 127.839 91.2358 127.663 91.6156C127.369 92.1998 127.076 92.7549 126.783 93.3392C126.607 93.6898 126.783 94.0403 127.194 94.0695C127.985 94.1572 128.777 94.1864 129.598 94.2156C130.009 94.2156 130.478 93.9235 130.625 93.5437C130.83 93.047 131.006 92.5504 131.211 92.0538V91.9077L132.941 100L140.214 66.3745L140.038 67.2217L161.915 81.303L160.918 80.6603C160.859 80.894 160.859 81.1569 160.918 81.3614C161.152 81.9457 161.416 82.5592 161.651 83.1434C161.798 83.5232 162.179 83.6109 162.472 83.3187C162.824 82.9974 163.147 82.6468 163.499 82.2962L168.66 85.6266L150.155 57.0552L174.232 51.8843C174.232 52.1473 174.232 52.4102 174.232 52.6731C174.232 53.0529 174.525 53.4911 174.877 53.6664C175.463 53.9293 176.05 54.1922 176.636 54.4552C177.018 54.6304 177.34 54.4552 177.37 54.0169C177.428 53.2282 177.428 52.4394 177.428 51.6214C177.428 51.4753 177.37 51.3292 177.311 51.1832L183 49.9562L182.941 49.927ZM166.49 16.915L166.636 16.8274L149.364 42.7403L142.589 41.2796L142.501 40.8414L166.519 16.915H166.49ZM124.026 49.927C124.026 45.019 128.044 41.0459 132.941 41.0459C137.839 41.0459 141.856 45.019 141.856 49.927C141.856 54.8349 137.839 58.8081 132.941 58.8081C128.044 58.8081 124.026 54.8349 124.026 49.927ZM133.645 2.62928L141.534 41.6886C139.51 39.5852 136.724 38.2413 133.616 38.066V2.62928H133.645ZM85.8446 49.1966H85.6979L124.818 41.3088C122.677 43.3246 121.299 46.0999 121.123 49.1966H85.8739H85.8446ZM99.3636 82.8513L99.217 82.9389L116.9 56.4417L123.821 57.9317L123.909 58.3698L99.3343 82.8513H99.3636ZM132.912 97.2247L125.141 58.8665C127.223 60.6778 129.95 61.7879 132.941 61.7879V97.1954L132.912 97.2247ZM166.607 83.494L166.695 83.6401L140.185 66.0824L141.768 58.7496L166.607 83.494ZM142.062 57.5811C143.821 55.5069 144.877 52.8484 144.877 49.927C144.877 49.927 144.877 49.927 144.877 49.8978H180.243L142.062 57.6103V57.5811Z" fill="#1D2361"/>
<path d="M157.135 15.8049C156.812 16.0387 156.812 16.4184 157.135 16.6522C157.721 17.0612 158.308 17.4702 158.894 17.9084C159.217 18.1421 159.744 18.1713 160.096 17.9376C160.654 17.6162 161.211 17.2657 161.768 16.9735C162.12 16.769 162.179 16.3892 161.827 16.1263C161.211 15.6297 160.566 15.1622 159.92 14.6948C159.569 14.4611 159.011 14.4611 158.689 14.6948C158.161 15.0454 157.662 15.4252 157.164 15.8049H157.135Z" fill="#1D2361"/>
<path d="M153.88 13.7012C153.586 13.9641 153.616 14.3439 153.938 14.5484C154.583 14.899 155.199 15.2496 155.815 15.6293C156.138 15.8338 156.665 15.8046 157.017 15.5709C157.545 15.1911 158.073 14.8113 158.601 14.4608C158.953 14.2271 158.953 13.8473 158.601 13.6136C157.926 13.1753 157.252 12.7663 156.548 12.3573C156.196 12.1528 155.639 12.2113 155.317 12.4742L153.88 13.7304V13.7012Z" fill="#1D2361"/>
<path d="M150.566 12.7674C151.241 13.0596 151.886 13.3517 152.531 13.6731C152.883 13.8484 153.411 13.7607 153.704 13.4978C154.203 13.0596 154.672 12.6506 155.171 12.2416C155.493 11.9787 155.464 11.5989 155.083 11.3944C154.379 11.0146 153.646 10.664 152.942 10.3427C152.561 10.1674 152.003 10.255 151.74 10.5764L150.449 11.9494C150.185 12.2416 150.244 12.6214 150.596 12.7674H150.566Z" fill="#1D2361"/>
<path d="M146.607 11.1308C147.282 11.3353 147.985 11.569 148.66 11.832C149.012 11.9488 149.54 11.832 149.804 11.5398C150.244 11.0724 150.683 10.605 151.123 10.1375C151.417 9.84541 151.329 9.46563 150.947 9.31956C150.214 9.02741 149.452 8.73525 148.689 8.50154C148.279 8.35547 147.751 8.50155 147.516 8.85212C147.135 9.34876 146.724 9.84541 146.373 10.342C146.138 10.6634 146.226 11.0432 146.607 11.16V11.1308Z" fill="#1D2361"/>
<path d="M171.827 34.2398C171.416 34.269 171.211 34.5904 171.358 34.9409C171.651 35.6129 171.915 36.2848 172.15 36.9567C172.267 37.3073 172.736 37.6286 173.147 37.6286C173.792 37.6286 174.437 37.6871 175.082 37.7163C175.493 37.7163 175.727 37.4534 175.581 37.0444C175.317 36.2848 175.023 35.5544 174.76 34.7949C174.613 34.4151 174.114 34.0937 173.733 34.1229C173.088 34.1229 172.472 34.1814 171.827 34.2398Z" fill="#1D2361"/>
<path d="M142.942 10.0475C143.646 10.1935 144.349 10.3688 145.053 10.5733C145.434 10.661 145.933 10.4857 146.168 10.1643C146.549 9.63846 146.959 9.14183 147.37 8.64519C147.634 8.32383 147.517 7.97327 147.106 7.85641C146.344 7.6227 145.581 7.41818 144.789 7.2429C144.379 7.15526 143.851 7.35977 143.646 7.71034L142.649 9.31712C142.443 9.66769 142.59 10.0183 142.942 10.1059V10.0475Z" fill="#1D2361"/>
<path d="M170.214 30.7328C169.804 30.7912 169.657 31.1418 169.833 31.4631C170.185 32.1058 170.507 32.7486 170.83 33.3913C171.006 33.7418 171.475 34.0048 171.856 33.9755C172.502 33.9463 173.147 33.9171 173.792 33.8879C174.202 33.8879 174.408 33.5666 174.232 33.1868C173.909 32.4564 173.557 31.7553 173.205 31.0249C173.029 30.6451 172.502 30.4114 172.12 30.4699C171.505 30.5575 170.859 30.6451 170.244 30.762L170.214 30.7328Z" fill="#1D2361"/>
<path d="M167.516 23.2236C166.93 23.4281 166.314 23.6326 165.728 23.8663C165.346 24.0123 165.229 24.3629 165.493 24.6551C165.962 25.2101 166.402 25.7652 166.842 26.3495C167.076 26.6708 167.575 26.8169 167.986 26.7293C168.601 26.554 169.247 26.4079 169.862 26.2618C170.273 26.1742 170.39 25.8236 170.156 25.4731C169.686 24.8304 169.217 24.1876 168.719 23.5741C168.455 23.2528 167.927 23.1067 167.546 23.2236H167.516Z" fill="#1D2361"/>
<path d="M160.332 18.2883C159.98 18.4928 159.951 18.8726 160.244 19.1063C160.508 19.3108 160.742 19.5445 161.006 19.7782L163.792 17.9961C163.587 17.8209 163.411 17.6456 163.206 17.4703C162.912 17.2074 162.326 17.1489 161.974 17.3534C161.417 17.6748 160.889 17.9961 160.332 18.3175V18.2883Z" fill="#1D2361"/>
<path d="M168.25 27.3744C167.868 27.4912 167.722 27.8126 167.927 28.134C168.337 28.7182 168.719 29.3317 169.1 29.9452C169.305 30.2666 169.774 30.5003 170.185 30.4419C170.83 30.3542 171.475 30.2374 172.121 30.179C172.531 30.1205 172.707 29.7992 172.502 29.4194C172.121 28.7182 171.71 28.0463 171.27 27.3744C171.035 27.0238 170.537 26.8193 170.126 26.907C169.511 27.053 168.895 27.1991 168.279 27.3452L168.25 27.3744Z" fill="#1D2361"/>
<path d="M139.187 9.29064C139.92 9.37829 140.624 9.49514 141.328 9.612C141.709 9.67043 142.178 9.4367 142.413 9.11534C142.765 8.56027 143.117 8.03443 143.469 7.47936C143.703 7.12879 143.556 6.77823 143.146 6.69059C142.354 6.54452 141.562 6.39845 140.771 6.28159C140.36 6.22316 139.861 6.48607 139.686 6.83664C139.392 7.39171 139.099 7.94679 138.835 8.53107C138.659 8.91085 138.835 9.23221 139.216 9.26142L139.187 9.29064Z" fill="#1D2361"/>
<path d="M123.381 9.93172C124.085 9.72722 124.789 9.58113 125.493 9.43506C125.874 9.34742 126.226 8.96765 126.314 8.55865C126.431 7.91594 126.549 7.30244 126.666 6.65972C126.754 6.25073 126.49 5.98781 126.079 6.07545C125.288 6.22152 124.525 6.39681 123.733 6.60131C123.323 6.71816 122.971 7.12716 122.912 7.53616L122.766 9.40586C122.766 9.81486 123.03 10.0486 123.381 9.96091V9.93172Z" fill="#1D2361"/>
<path d="M119.716 10.9833C120.39 10.7496 121.094 10.4867 121.768 10.2822C122.15 10.1653 122.472 9.75634 122.501 9.34734C122.56 8.70463 122.619 8.06193 122.677 7.41922C122.736 7.01022 122.413 6.77651 122.032 6.89336C121.27 7.12708 120.507 7.36079 119.745 7.62372C119.334 7.76979 119.012 8.20799 119.012 8.61699C119.012 9.2597 119.012 9.8732 119.012 10.5159C119.012 10.9249 119.334 11.1586 119.686 11.0125L119.716 10.9833Z" fill="#1D2361"/>
<path d="M116.138 12.3884C116.783 12.0671 117.458 11.7749 118.103 11.4828C118.455 11.3367 118.748 10.8693 118.748 10.4895C118.748 9.84678 118.748 9.20408 118.748 8.56137C118.748 8.15237 118.425 7.94787 118.044 8.09394C117.311 8.38608 116.578 8.70743 115.845 9.02879C115.463 9.20407 115.199 9.70072 115.229 10.1097C115.287 10.7232 115.346 11.3659 115.434 11.9794C115.493 12.3884 115.815 12.5637 116.167 12.4176L116.138 12.3884Z" fill="#1D2361"/>
<path d="M173.176 38.0644C172.766 38.0644 172.531 38.3565 172.648 38.7071C172.854 39.4082 173.059 40.0802 173.264 40.7813C173.352 41.1611 173.763 41.5117 174.173 41.5409C174.818 41.6285 175.434 41.7161 176.079 41.8038C176.49 41.8622 176.754 41.5993 176.666 41.1903C176.49 40.4015 176.285 39.6419 176.05 38.8824C175.933 38.4734 175.493 38.152 175.082 38.1228C174.437 38.0936 173.821 38.0644 173.176 38.0352V38.0644Z" fill="#1D2361"/>
<path d="M111.827 13.8197C111.915 14.2287 112.267 14.3748 112.589 14.1703C113.205 13.7905 113.821 13.4399 114.466 13.0893C114.818 12.914 115.053 12.4174 114.994 12.0376C114.935 11.3949 114.847 10.7522 114.789 10.1095C114.759 9.70049 114.437 9.52521 114.055 9.7005C113.352 10.0511 112.648 10.4601 111.944 10.8398C111.592 11.0443 111.358 11.5702 111.416 11.95C111.534 12.5635 111.651 13.177 111.797 13.7905L111.827 13.8197Z" fill="#1D2361"/>
<path d="M135.58 8.90902C136.196 8.90902 136.783 8.93825 137.399 8.99668C137.78 9.02589 138.249 8.76295 138.425 8.38316C138.718 7.79888 139.012 7.24382 139.305 6.65954C139.51 6.30897 139.305 5.9584 138.894 5.92918C138.102 5.84154 137.311 5.78312 136.519 5.75391C136.108 5.75391 135.639 6.04604 135.463 6.42582C135.375 6.65953 135.287 6.89325 135.17 7.15617L135.551 8.90902H135.58Z" fill="#1D2361"/>
<path d="M127.575 9.17259C128.279 9.05573 129.012 8.96809 129.716 8.88045C130.097 8.85124 130.507 8.50065 130.625 8.09166C130.801 7.47816 130.977 6.86467 131.182 6.25117C131.299 5.87139 131.065 5.55003 130.654 5.60846C129.862 5.66689 129.071 5.75454 128.279 5.8714C127.868 5.92983 127.458 6.30959 127.37 6.71859L127.018 8.58831C126.959 8.99731 127.194 9.26024 127.575 9.20181V9.17259Z" fill="#1D2361"/>
<path d="M131.417 8.85027C131.417 8.85027 131.622 8.85027 131.739 8.85027L132.443 5.63672C132.032 5.63672 131.593 5.98729 131.475 6.39629L130.947 8.20756C130.83 8.58734 131.065 8.9087 131.446 8.87949L131.417 8.85027Z" fill="#1D2361"/>
<path d="M175.991 42.0673L174.114 41.8044C173.704 41.7459 173.44 42.0381 173.528 42.3887C173.674 43.0898 173.821 43.7909 173.938 44.5213C173.997 44.9011 174.378 45.2808 174.789 45.3685C175.434 45.5146 176.05 45.6606 176.666 45.8067C177.076 45.8943 177.34 45.6606 177.281 45.2516C177.164 44.4628 177.047 43.6741 176.871 42.8853C176.783 42.4763 176.402 42.0965 175.991 42.0381V42.0673Z" fill="#1D2361"/>
<path d="M165.64 23.6052C166.255 23.3715 166.842 23.167 167.487 22.9625C167.868 22.8457 167.986 22.4659 167.692 22.1445C167.165 21.531 166.637 20.9467 166.08 20.3917C165.874 20.158 165.522 20.0703 165.2 20.0703L163.646 22.4659C163.939 22.758 164.203 23.0502 164.496 23.3423C164.76 23.6344 165.288 23.7513 165.669 23.6052H165.64Z" fill="#1D2361"/>
<path d="M108.572 15.9216C108.689 16.3014 109.041 16.4475 109.364 16.2138C109.95 15.7756 110.537 15.3666 111.123 14.9576C111.446 14.7531 111.622 14.2564 111.563 13.8474C111.416 13.2339 111.299 12.5912 111.182 11.9485C111.094 11.5395 110.771 11.3935 110.419 11.6272C109.745 12.0654 109.07 12.5036 108.425 12.971C108.073 13.2047 107.897 13.7306 108.015 14.1396C108.191 14.7531 108.367 15.3374 108.572 15.9509V15.9216Z" fill="#1D2361"/>
<path d="M165.405 80.3689C165.933 79.7554 166.431 79.1711 166.93 78.5284C167.194 78.207 167.223 77.652 166.989 77.3014L165.962 75.7238C165.728 75.3733 165.346 75.3733 165.112 75.6654C164.672 76.2497 164.232 76.8048 163.763 77.3598C163.675 77.4767 163.616 77.652 163.587 77.7981L165.288 80.4273C165.288 80.4273 165.346 80.3981 165.376 80.3397L165.405 80.3689Z" fill="#1D2361"/>
<path d="M101.241 19.7187C101.065 19.3389 100.683 19.3097 100.419 19.6311C99.8916 20.2154 99.393 20.8581 98.8945 21.4716C98.6306 21.7929 98.6012 22.348 98.8358 22.6986C99.1877 23.2244 99.5103 23.7503 99.8622 24.2761C100.097 24.6267 100.478 24.6267 100.713 24.3346C101.153 23.7503 101.592 23.1952 102.062 22.6401C102.296 22.348 102.355 21.8221 102.15 21.4424C101.856 20.8873 101.534 20.303 101.241 19.7187Z" fill="#1D2361"/>
<path d="M138.455 90.6506C137.751 90.7675 137.018 90.8551 136.314 90.9427C135.933 91.0012 135.522 91.3225 135.405 91.7315C135.229 92.345 135.053 92.9585 134.848 93.6012C134.73 93.981 134.965 94.3024 135.375 94.244C136.167 94.1563 136.959 94.0687 137.751 93.9518C138.161 93.8934 138.572 93.5136 138.66 93.1046L139.012 91.2349C139.07 90.8259 138.807 90.563 138.455 90.6214V90.6506Z" fill="#1D2361"/>
<path d="M154.203 85.9775C154.115 85.5685 153.763 85.4224 153.44 85.6269C152.824 86.0067 152.208 86.3573 151.563 86.7079C151.211 86.8831 150.977 87.3798 151.035 87.7888C151.094 88.4315 151.182 89.0742 151.241 89.7169C151.27 90.1259 151.593 90.3012 151.974 90.1259C152.678 89.7753 153.381 89.3663 154.085 88.9866C154.437 88.7821 154.672 88.2562 154.584 87.8764C154.466 87.2629 154.349 86.6494 154.203 86.0359V85.9775Z" fill="#1D2361"/>
<path d="M142.384 89.9492C141.681 90.1245 140.977 90.2998 140.273 90.4459C139.892 90.5335 139.54 90.9133 139.452 91.3223C139.335 91.965 139.217 92.5785 139.1 93.2212C139.012 93.6302 139.276 93.8931 139.686 93.8347C140.478 93.6886 141.241 93.5133 142.032 93.338C142.443 93.2212 142.795 92.8122 142.854 92.4032L143.03 90.5335C143.059 90.1245 142.766 89.8908 142.414 89.9784L142.384 89.9492Z" fill="#1D2361"/>
<path d="M149.628 87.5254C148.982 87.8468 148.308 88.1389 147.663 88.4018C147.311 88.5479 147.018 88.9861 147.018 89.3951C147.018 90.0378 147.018 90.6805 147.018 91.3233C147.018 91.7323 147.311 91.966 147.721 91.7907C148.454 91.4985 149.188 91.2064 149.921 90.8558C150.302 90.6805 150.566 90.2131 150.537 89.8041C150.478 89.1614 150.419 88.5479 150.361 87.9344C150.302 87.5254 149.979 87.3501 149.628 87.4962V87.5254Z" fill="#1D2361"/>
<path d="M146.049 88.8978C145.375 89.1315 144.7 89.3652 143.997 89.5989C143.615 89.7158 143.293 90.154 143.264 90.5338C143.205 91.1765 143.146 91.8192 143.088 92.4619C143.029 92.8709 143.322 93.1046 143.733 92.9878C144.495 92.7833 145.258 92.5203 146.02 92.2574C146.431 92.1113 146.753 91.6731 146.753 91.2641C146.753 90.6506 146.753 90.0079 146.753 89.3652C146.753 88.9562 146.431 88.7517 146.079 88.8685L146.049 88.8978Z" fill="#1D2361"/>
<path d="M134.789 91.0039L134.144 94.0422C134.378 93.8961 134.583 93.6916 134.642 93.4579L135.17 91.6466C135.258 91.3252 135.111 91.0623 134.818 91.0039H134.789Z" fill="#1D2361"/>
<path d="M130.801 93.6003C130.655 93.9801 130.86 94.3014 131.27 94.3014C131.388 94.3014 131.534 94.3014 131.652 94.3014L131.241 92.4609C131.094 92.8407 130.948 93.2497 130.772 93.6295L130.801 93.6003Z" fill="#1D2361"/>
<path d="M122.824 89.7767C122.12 89.6307 121.416 89.4554 120.713 89.2509C120.331 89.134 119.833 89.3093 119.598 89.6599C119.217 90.1858 118.806 90.6824 118.396 91.179C118.132 91.5004 118.249 91.851 118.66 91.997C119.422 92.2307 120.185 92.4352 120.976 92.6105C121.387 92.6982 121.915 92.4937 122.12 92.1723L123.147 90.5655C123.352 90.215 123.205 89.8644 122.853 89.7767H122.824Z" fill="#1D2361"/>
<path d="M126.578 90.5352C125.845 90.4475 125.141 90.3307 124.437 90.2138C124.056 90.1262 123.587 90.3599 123.352 90.7104C123 91.2655 122.648 91.7914 122.297 92.3464C122.062 92.697 122.209 93.0476 122.619 93.1352C123.411 93.2813 124.203 93.4273 124.994 93.5442C125.405 93.6026 125.904 93.3397 126.109 92.9892C126.402 92.4341 126.695 91.879 126.959 91.2947C127.135 90.9149 126.959 90.5936 126.578 90.5644V90.5352Z" fill="#1D2361"/>
<path d="M175.816 58.6033L174.174 57.6684C173.822 57.4639 173.47 57.6392 173.411 58.019C173.294 58.7201 173.147 59.4505 173.001 60.1516C172.913 60.5314 173.118 61.028 173.47 61.2618C173.998 61.6123 174.526 61.9921 175.054 62.3719C175.376 62.6056 175.728 62.4887 175.845 62.0797C176.021 61.291 176.197 60.5314 176.344 59.7426C176.403 59.3336 176.197 58.837 175.845 58.6325L175.816 58.6033Z" fill="#1D2361"/>
<path d="M173.235 61.6125C172.883 61.3788 172.531 61.4957 172.443 61.8754C172.267 62.5766 172.032 63.2485 171.827 63.9496C171.71 64.3002 171.827 64.8261 172.179 65.089C172.678 65.498 173.176 65.9362 173.645 66.3452C173.968 66.6081 174.32 66.5205 174.467 66.1407C174.73 65.3811 174.965 64.6216 175.2 63.862C175.317 63.453 175.141 62.9272 174.789 62.6934L173.235 61.6125Z" fill="#1D2361"/>
<path d="M119.159 88.6647C118.484 88.4602 117.78 88.1973 117.106 87.9636C116.754 87.8175 116.226 87.9636 115.962 88.2557C115.522 88.7231 115.082 89.1906 114.613 89.658C114.32 89.9501 114.408 90.3299 114.789 90.476C115.522 90.7681 116.285 91.0603 117.047 91.3232C117.428 91.4693 117.985 91.3232 118.22 90.9726L119.364 89.4827C119.598 89.1613 119.51 88.7815 119.129 88.6647H119.159Z" fill="#1D2361"/>
<path d="M176.431 54.6007C175.844 54.3378 175.287 54.0748 174.701 53.8411C174.319 53.6658 173.997 53.8411 173.967 54.2501C173.909 54.9805 173.85 55.6816 173.762 56.412C173.703 56.7917 173.967 57.2592 174.319 57.4637C174.876 57.785 175.434 58.1064 175.991 58.4277C176.343 58.6322 176.695 58.4862 176.753 58.0772C176.871 57.2884 176.959 56.4996 177.047 55.7108C177.076 55.3018 176.812 54.8052 176.431 54.6299V54.6007Z" fill="#1D2361"/>
<path d="M105.522 18.3172C105.669 18.697 106.05 18.7846 106.343 18.5217C106.871 18.025 107.428 17.5576 107.985 17.1194C108.279 16.8857 108.425 16.3598 108.308 15.9801C108.103 15.3666 107.927 14.7531 107.751 14.1104C107.634 13.7014 107.282 13.5845 106.959 13.8474C106.314 14.3441 105.698 14.8407 105.112 15.3666C104.789 15.6295 104.672 16.1846 104.818 16.5643L105.522 18.3172Z" fill="#1D2361"/>
<path d="M170.39 68.8003C170.097 68.5082 169.745 68.5666 169.569 68.9172C169.247 69.5599 168.924 70.2026 168.572 70.8453C168.396 71.1959 168.455 71.7217 168.689 72.0431C169.1 72.5397 169.51 73.0364 169.892 73.5623C170.156 73.8836 170.537 73.8544 170.742 73.5038C171.153 72.8027 171.534 72.1016 171.886 71.4004C172.091 71.0206 172.003 70.4655 171.71 70.1734C171.27 69.706 170.83 69.2678 170.39 68.8296V68.8003Z" fill="#1D2361"/>
<path d="M160.507 81.4181C160.36 81.0383 159.979 80.9507 159.686 81.2136C159.158 81.6811 158.601 82.1777 158.044 82.6159C157.75 82.8496 157.604 83.3755 157.721 83.7553C157.926 84.3688 158.102 84.9823 158.278 85.625C158.396 86.0048 158.748 86.1508 159.07 85.8879C159.715 85.3913 160.302 84.8946 160.918 84.3688C161.24 84.1058 161.358 83.5508 161.211 83.171C160.976 82.5867 160.742 82.0024 160.478 81.4181H160.507Z" fill="#1D2361"/>
<path d="M168.22 72.5388C167.956 72.2174 167.575 72.2466 167.399 72.5388C167.018 73.1523 166.607 73.7658 166.196 74.35C165.991 74.6714 165.962 75.1973 166.196 75.5478C166.548 76.0737 166.9 76.6288 167.252 77.1838C167.457 77.5344 167.839 77.5636 168.103 77.213C168.572 76.5703 169.012 75.8984 169.452 75.2265C169.686 74.8759 169.657 74.3208 169.393 73.9995L168.22 72.5096V72.5388Z" fill="#1D2361"/>
<path d="M157.457 83.8448C157.34 83.465 156.988 83.3482 156.665 83.5527C156.079 83.9909 155.492 84.3999 154.906 84.8089C154.583 85.0134 154.378 85.51 154.466 85.919C154.583 86.5617 154.73 87.1752 154.847 87.818C154.935 88.227 155.258 88.373 155.609 88.1393C156.284 87.7011 156.958 87.2629 157.604 86.7955C157.956 86.5618 158.131 86.0067 158.014 85.6269C157.838 85.0134 157.662 84.4291 157.457 83.8156V83.8448Z" fill="#1D2361"/>
<path d="M171.974 65.2662C171.651 65.0032 171.299 65.0909 171.152 65.4415C170.918 66.1134 170.625 66.7853 170.331 67.4572C170.185 67.8078 170.273 68.3336 170.566 68.6258C171.035 69.0932 171.475 69.5606 171.915 70.0281C172.179 70.3202 172.589 70.2618 172.736 69.882C173.059 69.1516 173.381 68.4213 173.674 67.6909C173.821 67.3111 173.674 66.7561 173.381 66.4932L171.944 65.2662H171.974Z" fill="#1D2361"/>
<path d="M90.0669 41.3956L91.7091 42.3304C92.061 42.5349 92.4129 42.3596 92.4715 41.9798C92.5888 41.2787 92.7061 40.5484 92.8821 39.8472C92.9701 39.4674 92.7648 38.9708 92.4129 38.7371C91.885 38.3865 91.3572 38.0067 90.8293 37.6269C90.5067 37.3932 90.1255 37.5101 90.0375 37.9191C89.8616 38.7078 89.6856 39.4674 89.539 40.2562C89.451 40.6652 89.6856 41.1618 90.0669 41.3663V41.3956Z" fill="#1D2361"/>
<path d="M89.4519 45.3993C90.0091 45.6622 90.5956 45.9251 91.1821 46.1589C91.5633 46.3049 91.8859 46.1589 91.9152 45.7499C91.9739 45.0195 92.0325 44.3184 92.1205 43.588C92.1792 43.2082 91.9152 42.7408 91.5633 42.5363C91.0061 42.215 90.4489 41.8936 89.8624 41.5722C89.5105 41.3677 89.1586 41.5138 89.1 41.9228C88.9827 42.7116 88.8947 43.5004 88.8067 44.2892C88.7774 44.6982 89.0707 45.1948 89.4226 45.3409L89.4519 45.3993Z" fill="#1D2361"/>
<path d="M115.493 87.1765C114.818 86.8844 114.173 86.5922 113.528 86.2709C113.176 86.0956 112.648 86.1832 112.355 86.4462C111.886 86.8844 111.387 87.2934 110.889 87.7024C110.566 87.9653 110.625 88.3451 110.977 88.5496C111.68 88.9294 112.414 89.2799 113.117 89.6013C113.499 89.7766 114.056 89.6597 114.32 89.3676L115.61 87.9945C115.874 87.7024 115.815 87.3226 115.463 87.1765H115.493Z" fill="#1D2361"/>
<path d="M92.7063 38.126C93.0582 38.3597 93.4102 38.2429 93.4981 37.8631C93.7034 37.1619 93.9087 36.49 94.114 35.7889C94.2313 35.4383 94.114 34.9125 93.7621 34.6495C93.2635 34.2405 92.7943 33.8023 92.2958 33.3933C91.9732 33.1304 91.6213 33.218 91.4747 33.5978C91.2107 34.3574 90.9468 35.1169 90.7415 35.8765C90.6242 36.2855 90.8002 36.8114 91.1228 37.0451L92.677 38.126H92.7063Z" fill="#1D2361"/>
<path d="M93.9967 34.4448C94.3193 34.7077 94.6712 34.6201 94.8178 34.2695C95.0817 33.5976 95.3457 32.9256 95.6389 32.2829C95.7855 31.9324 95.6976 31.4065 95.4043 31.1144C94.9644 30.647 94.4952 30.1795 94.0553 29.7121C93.7914 29.42 93.4101 29.4784 93.2342 29.8582C92.9116 30.5885 92.5891 31.3189 92.2958 32.0492C92.1492 32.429 92.2958 32.9841 92.5891 33.247L94.026 34.474L93.9967 34.4448Z" fill="#1D2361"/>
<path d="M97.6036 27.4314C97.8676 27.7528 98.2488 27.7236 98.4541 27.4314C98.8353 26.8179 99.2165 26.2044 99.6271 25.6201C99.8324 25.2988 99.8324 24.7729 99.6271 24.4224C99.2752 23.8965 98.9233 23.3414 98.5714 22.7864C98.3661 22.4358 97.9556 22.4358 97.721 22.7864C97.2517 23.4291 96.8118 24.101 96.372 24.7729C96.1374 25.1235 96.1667 25.6786 96.4306 25.9999L97.6036 27.4606V27.4314Z" fill="#1D2361"/>
<path d="M95.5809 30.9375C95.8741 31.2296 96.2554 31.1712 96.402 30.8206C96.7246 30.1779 97.0472 29.5352 97.3991 28.8925C97.5751 28.5419 97.5164 28.0161 97.2818 27.6947C96.8712 27.1981 96.4606 26.7014 96.0794 26.1756C95.8155 25.8542 95.4343 25.8542 95.229 26.234C94.8184 26.9351 94.4372 27.6071 94.0853 28.3374C93.9094 28.7172 93.968 29.2723 94.2612 29.5644L95.5809 30.9083V30.9375Z" fill="#1D2361"/>
<path d="M91.065 46.4224C90.4785 46.1594 89.8919 45.8965 89.3054 45.6336C88.9242 45.4583 88.6016 45.6336 88.5723 46.0718C88.543 46.7145 88.543 47.3572 88.5137 47.9999L91.6808 47.328C91.6515 46.9774 91.3875 46.5977 91.0356 46.4516L91.065 46.4224Z" fill="#1D2361"/>
<path d="M89.8912 57.6385L91.768 57.9014C92.1786 57.9599 92.4425 57.6677 92.3546 57.3171C92.2079 56.616 92.0613 55.9149 91.944 55.1845C91.8854 54.8047 91.5041 54.4249 91.1229 54.3373C90.4777 54.1912 89.8619 54.0452 89.2461 53.8699C88.8355 53.7822 88.5716 54.0159 88.6302 54.4249C88.7475 55.2137 88.8648 56.0025 89.0115 56.7913C89.0994 57.2003 89.4806 57.5801 89.8912 57.6385Z" fill="#1D2361"/>
<path d="M108.894 84.1359C109.217 83.9021 109.217 83.5224 108.894 83.3179C108.308 82.9089 107.692 82.4999 107.135 82.0617C106.812 81.8279 106.284 81.7987 105.932 82.0325C105.375 82.3538 104.818 82.7044 104.261 83.0257C103.909 83.2302 103.88 83.61 104.202 83.8729C104.818 84.3696 105.463 84.837 106.138 85.3044C106.49 85.5381 107.047 85.5381 107.369 85.3044C107.868 84.9539 108.396 84.5741 108.894 84.1943V84.1359Z" fill="#1D2361"/>
<path d="M98.3077 76.5112C98.9236 76.3067 99.5101 76.1022 100.097 75.8685C100.478 75.7224 100.595 75.3719 100.331 75.0797C99.862 74.5247 99.4221 73.9696 98.9822 73.3853C98.7476 73.0639 98.2491 72.9179 97.8385 73.0055C97.2227 73.1808 96.5775 73.3269 95.9617 73.473C95.5511 73.5606 95.4338 73.9112 95.6684 74.2617C96.1376 74.9044 96.6068 75.5472 97.1054 76.1607C97.3693 76.482 97.8971 76.6281 98.2784 76.5112H98.3077Z" fill="#1D2361"/>
<path d="M112.149 86.2115C112.443 85.9485 112.413 85.5687 112.091 85.3934C111.445 85.0429 110.83 84.6923 110.214 84.3125C109.891 84.108 109.363 84.1372 109.011 84.371C108.484 84.7507 107.956 85.1305 107.428 85.5103C107.076 85.744 107.105 86.1238 107.428 86.3575C108.102 86.7957 108.777 87.2047 109.481 87.6137C109.833 87.8182 110.39 87.7598 110.712 87.4969C111.182 87.0879 111.68 86.6789 112.12 86.2407L112.149 86.2115Z" fill="#1D2361"/>
<path d="M92.7068 61.6713C93.1174 61.6713 93.3519 61.3791 93.2346 61.0285C93.0294 60.3274 92.8241 59.6555 92.6481 58.9543C92.5602 58.5746 92.1496 58.224 91.7391 58.1948C91.0939 58.1071 90.4488 58.0195 89.8329 57.9026C89.4224 57.8442 89.1584 58.1071 89.2464 58.5161C89.4224 59.2757 89.6276 60.0645 89.8622 60.824C89.9795 61.233 90.4194 61.5836 90.83 61.5836C91.4458 61.6128 92.091 61.642 92.7361 61.6713H92.7068Z" fill="#1D2361"/>
<path d="M94.114 65.7304C94.5245 65.7012 94.7298 65.3798 94.5832 65.0293C94.2899 64.3573 94.026 63.7146 93.7914 63.0135C93.6741 62.6629 93.2049 62.3415 92.7943 62.3415C92.1492 62.3415 91.504 62.3123 90.8588 62.2539C90.4483 62.2539 90.2137 62.5168 90.3603 62.9258C90.6242 63.6854 90.9175 64.4158 91.2108 65.1753C91.3867 65.5551 91.8266 65.8473 92.2371 65.8473C92.8823 65.818 93.4981 65.7888 94.1433 65.7304H94.114Z" fill="#1D2361"/>
<path d="M95.7566 69.2684C96.1672 69.21 96.3138 68.8594 96.1379 68.5381C95.786 67.8954 95.4634 67.2526 95.1408 66.6099C94.9649 66.2594 94.4957 65.9964 94.0851 66.0257C93.4399 66.0549 92.7948 66.1133 92.1496 66.1133C91.7391 66.1133 91.5338 66.4639 91.7098 66.8144C92.0323 67.5448 92.3842 68.2459 92.7655 68.9471C92.9707 69.3269 93.4693 69.5606 93.8798 69.5021C94.4956 69.4145 95.1408 69.3269 95.7566 69.21V69.2684Z" fill="#1D2361"/>
<path d="M95.8735 73.0633C96.4894 72.9173 97.1052 72.7712 97.7211 72.5959C98.1316 72.479 98.2489 72.1577 98.0436 71.8363C97.6331 71.252 97.2518 70.6386 96.8706 70.0251C96.6653 69.7037 96.1961 69.47 95.7856 69.5576C95.1404 69.6453 94.4952 69.7621 93.8501 69.8498C93.4395 69.9082 93.2635 70.2588 93.4688 70.6093C93.8501 71.3105 94.2899 71.9824 94.7005 72.6543C94.9058 73.0049 95.463 73.2094 95.8442 73.1218L95.8735 73.0633Z" fill="#1D2361"/>
<path d="M151.387 42.4495L155.874 43.4136L166.108 36.3438L153.909 38.564L151.387 42.4495Z" fill="#1D2361"/>
<path d="M155.316 56.6445L151.27 57.5502L154.114 61.9323L166.167 64.0357L155.316 56.6445Z" fill="#1D2361"/>
<path d="M121.709 28.6014L126.225 31.5228L127.076 27.6666L119.539 16.8281L121.709 28.6014Z" fill="#1D2361"/>
<path d="M141.299 31.5227L145.815 28.572L147.897 16.7695L140.448 27.6664L141.299 31.5227Z" fill="#1D2361"/>
<path d="M125.346 67.4258L120.83 70.3472L118.66 82.1205L126.197 71.282L125.346 67.4258Z" fill="#1D2361"/>
<path d="M145.082 71.2847L140.566 68.3633L139.716 72.1903L147.194 83.0872L145.082 71.2847Z" fill="#1D2361"/>
<path d="M110.507 42.652L114.965 41.6588L112.443 37.8025L100.214 35.6406L110.507 42.652Z" fill="#1D2361"/>
<path d="M114.496 56.7355L110.009 55.7422L99.7158 62.7536L111.945 60.5917L114.496 56.7355Z" fill="#1D2361"/>
<path d="M30.7083 141L38.1316 126.307V126.188H29.5151V123.545H41.4043V126.247L33.9896 141H30.7083ZM48.4578 137.412H51.5175C51.5459 137.901 51.7646 138.278 52.1737 138.545C52.5828 138.812 53.1141 138.946 53.7675 138.946C54.4323 138.946 54.9919 138.801 55.4465 138.511C55.9067 138.216 56.1368 137.77 56.1368 137.173C56.1368 136.821 56.0487 136.511 55.8726 136.244C55.6965 135.972 55.4493 135.761 55.1311 135.614C54.8129 135.466 54.4379 135.392 54.0061 135.392H52.0033V133.202H54.0061C54.6482 133.202 55.134 133.054 55.4635 132.759C55.7987 132.463 55.9663 132.091 55.9663 131.642C55.9663 131.159 55.7902 130.767 55.4379 130.466C55.0913 130.165 54.6112 130.014 53.9976 130.014C53.384 130.014 52.8726 130.153 52.4635 130.432C52.0601 130.71 51.8499 131.068 51.8328 131.506H48.7902C48.8016 130.744 49.0288 130.082 49.472 129.52C49.9209 128.957 50.5232 128.52 51.2788 128.207C52.0402 127.895 52.8982 127.739 53.8527 127.739C54.8754 127.739 55.759 127.892 56.5033 128.199C57.2476 128.506 57.8215 128.935 58.2249 129.486C58.6283 130.031 58.83 130.673 58.83 131.412C58.83 132.122 58.6084 132.71 58.1652 133.176C57.722 133.636 57.1254 133.966 56.3754 134.165V134.301C56.8925 134.33 57.3584 134.477 57.7732 134.744C58.1879 135.006 58.5175 135.361 58.7618 135.81C59.0061 136.259 59.1283 136.778 59.1283 137.369C59.1283 138.17 58.8982 138.864 58.4379 139.449C57.9777 140.028 57.3442 140.474 56.5374 140.787C55.7362 141.099 54.8186 141.256 53.7845 141.256C52.7788 141.256 51.8783 141.105 51.0828 140.804C50.2931 140.497 49.6652 140.057 49.1993 139.483C48.7334 138.909 48.4862 138.219 48.4578 137.412ZM64.8443 141.264C64.0148 141.264 63.2676 141.116 62.6028 140.821C61.9437 140.52 61.421 140.077 61.0346 139.491C60.654 138.906 60.4636 138.185 60.4636 137.327C60.4636 136.588 60.6 135.977 60.8727 135.494C61.1454 135.011 61.5176 134.625 61.9892 134.335C62.4608 134.045 62.992 133.827 63.5829 133.679C64.1795 133.526 64.796 133.415 65.4324 133.347C66.1994 133.267 66.8216 133.196 67.2988 133.134C67.7761 133.065 68.1227 132.963 68.3386 132.827C68.5602 132.685 68.671 132.466 68.671 132.17V132.119C68.671 131.477 68.4807 130.98 68.1 130.628C67.7193 130.276 67.171 130.099 66.4551 130.099C65.6994 130.099 65.1 130.264 64.6568 130.594C64.2193 130.923 63.9238 131.312 63.7704 131.761L60.8898 131.352C61.117 130.557 61.492 129.892 62.0148 129.358C62.5375 128.818 63.1767 128.415 63.9324 128.148C64.6881 127.875 65.5233 127.739 66.4381 127.739C67.0687 127.739 67.6966 127.812 68.3216 127.96C68.9466 128.108 69.5176 128.352 70.0346 128.693C70.5517 129.028 70.9665 129.486 71.279 130.065C71.5971 130.645 71.7562 131.369 71.7562 132.239V141H68.7903V139.202H68.6881C68.5006 139.565 68.2363 139.906 67.8954 140.224C67.5602 140.537 67.1369 140.79 66.6256 140.983C66.1199 141.17 65.5261 141.264 64.8443 141.264ZM65.6454 138.997C66.2648 138.997 66.8017 138.875 67.2562 138.631C67.7108 138.381 68.0602 138.051 68.3045 137.642C68.5545 137.233 68.6795 136.787 68.6795 136.304V134.761C68.5829 134.841 68.4182 134.915 68.1852 134.983C67.9579 135.051 67.7023 135.111 67.4182 135.162C67.1341 135.213 66.8528 135.259 66.5744 135.298C66.296 135.338 66.0545 135.372 65.85 135.401C65.3898 135.463 64.9778 135.565 64.6142 135.707C64.2506 135.849 63.9636 136.048 63.7534 136.304C63.5432 136.554 63.4381 136.878 63.4381 137.276C63.4381 137.844 63.6454 138.273 64.0602 138.562C64.475 138.852 65.0034 138.997 65.6454 138.997ZM76.9012 127.909L79.5433 132.741L82.2279 127.909H85.4921L81.5461 134.455L85.5603 141H82.3132L79.5433 136.287L76.799 141H73.5262L77.5149 134.455L73.6285 127.909H76.9012ZM87.3985 141V127.909H92.8957C94.4468 127.909 95.6712 128.219 96.569 128.838C97.4724 129.457 97.9241 130.321 97.9241 131.429C97.9241 132.162 97.6684 132.761 97.157 133.227C96.6513 133.687 95.961 133.997 95.086 134.156C95.7735 134.213 96.3758 134.386 96.8928 134.676C97.4156 134.966 97.8246 135.347 98.1201 135.818C98.4156 136.29 98.5633 136.832 98.5633 137.446C98.5633 138.168 98.3729 138.795 97.9923 139.33C97.6173 139.858 97.069 140.27 96.3474 140.565C95.6315 140.855 94.7621 141 93.7394 141H87.3985ZM90.2877 138.571H93.7394C94.3076 138.571 94.7536 138.437 95.0775 138.17C95.4013 137.898 95.5633 137.528 95.5633 137.062C95.5633 136.523 95.4013 136.099 95.0775 135.793C94.7536 135.48 94.3076 135.324 93.7394 135.324H90.2877V138.571ZM90.2877 133.33H92.9553C93.3758 133.33 93.7366 133.27 94.0377 133.151C94.3388 133.026 94.569 132.852 94.7281 132.631C94.8871 132.403 94.9667 132.134 94.9667 131.821C94.9667 131.372 94.782 131.02 94.4127 130.764C94.0491 130.509 93.5434 130.381 92.8957 130.381H90.2877V133.33ZM104.396 141.264C103.567 141.264 102.82 141.116 102.155 140.821C101.496 140.52 100.973 140.077 100.587 139.491C100.206 138.906 100.016 138.185 100.016 137.327C100.016 136.588 100.152 135.977 100.425 135.494C100.698 135.011 101.07 134.625 101.541 134.335C102.013 134.045 102.544 133.827 103.135 133.679C103.732 133.526 104.348 133.415 104.985 133.347C105.752 133.267 106.374 133.196 106.851 133.134C107.328 133.065 107.675 132.963 107.891 132.827C108.112 132.685 108.223 132.466 108.223 132.17V132.119C108.223 131.477 108.033 130.98 107.652 130.628C107.271 130.276 106.723 130.099 106.007 130.099C105.252 130.099 104.652 130.264 104.209 130.594C103.771 130.923 103.476 131.312 103.323 131.761L100.442 131.352C100.669 130.557 101.044 129.892 101.567 129.358C102.09 128.818 102.729 128.415 103.485 128.148C104.24 127.875 105.075 127.739 105.99 127.739C106.621 127.739 107.249 127.812 107.874 127.96C108.499 128.108 109.07 128.352 109.587 128.693C110.104 129.028 110.519 129.486 110.831 130.065C111.149 130.645 111.308 131.369 111.308 132.239V141H108.343V139.202H108.24C108.053 139.565 107.789 139.906 107.448 140.224C107.112 140.537 106.689 140.79 106.178 140.983C105.672 141.17 105.078 141.264 104.396 141.264ZM105.198 138.997C105.817 138.997 106.354 138.875 106.808 138.631C107.263 138.381 107.612 138.051 107.857 137.642C108.107 137.233 108.232 136.787 108.232 136.304V134.761C108.135 134.841 107.97 134.915 107.737 134.983C107.51 135.051 107.254 135.111 106.97 135.162C106.686 135.213 106.405 135.259 106.127 135.298C105.848 135.338 105.607 135.372 105.402 135.401C104.942 135.463 104.53 135.565 104.166 135.707C103.803 135.849 103.516 136.048 103.306 136.304C103.095 136.554 102.99 136.878 102.99 137.276C102.99 137.844 103.198 138.273 103.612 138.562C104.027 138.852 104.556 138.997 105.198 138.997ZM112.465 130.44V127.909H123.919V130.44H119.684V141H116.701V130.44H112.465ZM127.984 132.17H131.845C133.515 132.17 134.808 132.577 135.723 133.389C136.637 134.202 137.098 135.267 137.103 136.585C137.098 137.443 136.887 138.205 136.473 138.869C136.064 139.534 135.467 140.057 134.683 140.438C133.905 140.812 132.959 141 131.845 141H125.896V127.909H128.87V138.469H131.845C132.515 138.469 133.066 138.298 133.498 137.957C133.93 137.611 134.146 137.168 134.146 136.628C134.146 136.06 133.93 135.597 133.498 135.239C133.066 134.881 132.515 134.702 131.845 134.702H127.984V132.17ZM138.731 141V127.909H141.816V141H138.731ZM144.518 141V127.909H150.015C151.566 127.909 152.79 128.219 153.688 128.838C154.591 129.457 155.043 130.321 155.043 131.429C155.043 132.162 154.787 132.761 154.276 133.227C153.77 133.687 153.08 133.997 152.205 134.156C152.893 134.213 153.495 134.386 154.012 134.676C154.535 134.966 154.944 135.347 155.239 135.818C155.535 136.29 155.682 136.832 155.682 137.446C155.682 138.168 155.492 138.795 155.111 139.33C154.736 139.858 154.188 140.27 153.466 140.565C152.751 140.855 151.881 141 150.858 141H144.518ZM147.407 138.571H150.858C151.427 138.571 151.873 138.437 152.197 138.17C152.52 137.898 152.682 137.528 152.682 137.062C152.682 136.523 152.52 136.099 152.197 135.793C151.873 135.48 151.427 135.324 150.858 135.324H147.407V138.571ZM147.407 133.33H150.074C150.495 133.33 150.856 133.27 151.157 133.151C151.458 133.026 151.688 132.852 151.847 132.631C152.006 132.403 152.086 132.134 152.086 131.821C152.086 131.372 151.901 131.02 151.532 130.764C151.168 130.509 150.662 130.381 150.015 130.381H147.407V133.33ZM161.516 141.264C160.686 141.264 159.939 141.116 159.274 140.821C158.615 140.52 158.092 140.077 157.706 139.491C157.325 138.906 157.135 138.185 157.135 137.327C157.135 136.588 157.271 135.977 157.544 135.494C157.817 135.011 158.189 134.625 158.66 134.335C159.132 134.045 159.663 133.827 160.254 133.679C160.851 133.526 161.467 133.415 162.104 133.347C162.871 133.267 163.493 133.196 163.97 133.134C164.447 133.065 164.794 132.963 165.01 132.827C165.231 132.685 165.342 132.466 165.342 132.17V132.119C165.342 131.477 165.152 130.98 164.771 130.628C164.391 130.276 163.842 130.099 163.126 130.099C162.371 130.099 161.771 130.264 161.328 130.594C160.891 130.923 160.595 131.312 160.442 131.761L157.561 131.352C157.788 130.557 158.163 129.892 158.686 129.358C159.209 128.818 159.848 128.415 160.604 128.148C161.359 127.875 162.195 127.739 163.109 127.739C163.74 127.739 164.368 127.812 164.993 127.96C165.618 128.108 166.189 128.352 166.706 128.693C167.223 129.028 167.638 129.486 167.95 130.065C168.268 130.645 168.427 131.369 168.427 132.239V141H165.462V139.202H165.359C165.172 139.565 164.908 139.906 164.567 140.224C164.231 140.537 163.808 140.79 163.297 140.983C162.791 141.17 162.197 141.264 161.516 141.264ZM162.317 138.997C162.936 138.997 163.473 138.875 163.927 138.631C164.382 138.381 164.731 138.051 164.976 137.642C165.226 137.233 165.351 136.787 165.351 136.304V134.761C165.254 134.841 165.089 134.915 164.856 134.983C164.629 135.051 164.373 135.111 164.089 135.162C163.805 135.213 163.524 135.259 163.246 135.298C162.967 135.338 162.726 135.372 162.521 135.401C162.061 135.463 161.649 135.565 161.285 135.707C160.922 135.849 160.635 136.048 160.425 136.304C160.214 136.554 160.109 136.878 160.109 137.276C160.109 137.844 160.317 138.273 160.731 138.562C161.146 138.852 161.675 138.997 162.317 138.997ZM177.962 133.27V135.81H170.913V133.27H177.962ZM173.359 127.909V141H170.266V127.909H173.359ZM181.916 141.256C180.655 141.256 179.561 140.969 178.635 140.395C177.715 139.821 177.001 139.026 176.496 138.009C175.99 136.991 175.737 135.815 175.737 134.48C175.737 133.145 175.99 131.972 176.496 130.96C177.001 129.949 177.715 129.159 178.635 128.591C179.561 128.023 180.655 127.739 181.916 127.739C183.172 127.739 184.26 128.023 185.18 128.591C186.107 129.159 186.822 129.949 187.328 130.96C187.84 131.972 188.095 133.145 188.095 134.48C188.095 135.815 187.84 136.991 187.328 138.009C186.822 139.026 186.107 139.821 185.18 140.395C184.26 140.969 183.172 141.256 181.916 141.256ZM181.916 138.699C182.661 138.699 183.269 138.511 183.74 138.136C184.212 137.761 184.558 137.256 184.78 136.619C185.001 135.983 185.112 135.27 185.112 134.48C185.112 133.69 185.001 132.977 184.78 132.341C184.558 131.705 184.212 131.202 183.74 130.832C183.269 130.457 182.661 130.27 181.916 130.27C181.166 130.27 180.553 130.457 180.075 130.832C179.604 131.202 179.257 131.705 179.036 132.341C178.814 132.977 178.703 133.69 178.703 134.48C178.703 135.276 178.814 135.991 179.036 136.628C179.257 137.264 179.604 137.77 180.075 138.145C180.553 138.514 181.166 138.699 181.916 138.699ZM210.013 138.469L209.757 144.75H206.851V141H205.308V138.469H210.013ZM190.351 127.909H193.325V138.46H197.442V127.909H200.416V138.46H204.533V127.909H207.507V141H190.351V127.909ZM214.947 136.824L220.188 127.909H223.359V141H220.376V132.077L215.152 141H211.973V127.909H214.947V136.824ZM228.57 127.909L231.212 132.741L233.897 127.909H237.161L233.215 134.455L237.229 141H233.982L231.212 136.287L228.468 141H225.195L229.184 134.455L225.297 127.909H228.57ZM99.7447 154.278C99.3129 154.284 98.9152 154.378 98.5516 154.56C98.1879 154.741 97.8953 154.989 97.6737 155.301C97.4578 155.608 97.3499 155.966 97.3499 156.375H94.5118C94.5118 155.716 94.6482 155.102 94.9209 154.534C95.1936 153.966 95.5686 153.472 96.0459 153.051C96.5288 152.631 97.0857 152.304 97.7163 152.071C98.3527 151.832 99.0288 151.713 99.7447 151.713C101.017 151.713 102.091 152.009 102.966 152.599C103.847 153.19 104.512 153.986 104.961 154.986C105.415 155.98 105.642 157.082 105.642 158.293V158.659C105.642 159.869 105.418 160.974 104.969 161.974C104.52 162.969 103.856 163.761 102.975 164.352C102.1 164.943 101.023 165.239 99.7447 165.239C98.722 165.239 97.8158 165.031 97.026 164.616C96.2419 164.196 95.6254 163.611 95.1766 162.861C94.7334 162.111 94.5118 161.236 94.5118 160.236H97.3499C97.3499 160.668 97.4521 161.068 97.6567 161.438C97.8612 161.801 98.1425 162.094 98.5004 162.315C98.8641 162.537 99.2788 162.651 99.7447 162.656C100.444 162.651 101.006 162.443 101.432 162.034C101.864 161.625 102.177 161.114 102.37 160.5C102.569 159.886 102.668 159.273 102.668 158.659V158.293C102.668 157.634 102.569 157 102.37 156.392C102.177 155.778 101.864 155.276 101.432 154.884C101.006 154.486 100.444 154.284 99.7447 154.278ZM103.631 157.415V159.46H98.6453V157.415H103.631ZM106.324 154.44V151.909H117.778V154.44H113.542V165H110.559V154.44H106.324ZM122.983 165.264C122.153 165.264 121.406 165.116 120.741 164.821C120.082 164.52 119.56 164.077 119.173 163.491C118.793 162.906 118.602 162.185 118.602 161.327C118.602 160.588 118.739 159.977 119.011 159.494C119.284 159.011 119.656 158.625 120.128 158.335C120.599 158.045 121.131 157.827 121.722 157.679C122.318 157.526 122.935 157.415 123.571 157.347C124.338 157.267 124.96 157.196 125.437 157.134C125.915 157.065 126.261 156.963 126.477 156.827C126.699 156.685 126.81 156.466 126.81 156.17V156.119C126.81 155.477 126.619 154.98 126.239 154.628C125.858 154.276 125.31 154.099 124.594 154.099C123.838 154.099 123.239 154.264 122.795 154.594C122.358 154.923 122.062 155.312 121.909 155.761L119.028 155.352C119.256 154.557 119.631 153.892 120.153 153.358C120.676 152.818 121.315 152.415 122.071 152.148C122.827 151.875 123.662 151.739 124.577 151.739C125.207 151.739 125.835 151.812 126.46 151.96C127.085 152.108 127.656 152.352 128.173 152.693C128.69 153.028 129.105 153.486 129.418 154.065C129.736 154.645 129.895 155.369 129.895 156.239V165H126.929V163.202H126.827C126.639 163.565 126.375 163.906 126.034 164.224C125.699 164.537 125.276 164.79 124.764 164.983C124.258 165.17 123.665 165.264 122.983 165.264ZM123.784 162.997C124.403 162.997 124.94 162.875 125.395 162.631C125.849 162.381 126.199 162.051 126.443 161.642C126.693 161.233 126.818 160.787 126.818 160.304V158.761C126.722 158.841 126.557 158.915 126.324 158.983C126.097 159.051 125.841 159.111 125.557 159.162C125.273 159.213 124.991 159.259 124.713 159.298C124.435 159.338 124.193 159.372 123.989 159.401C123.528 159.463 123.116 159.565 122.753 159.707C122.389 159.849 122.102 160.048 121.892 160.304C121.682 160.554 121.577 160.878 121.577 161.276C121.577 161.844 121.784 162.273 122.199 162.562C122.614 162.852 123.142 162.997 123.784 162.997ZM132.517 165V151.909H143.571V165H140.597V154.44H135.466V165H132.517ZM151.974 165.256C150.695 165.256 149.588 164.974 148.65 164.412C147.713 163.849 146.985 163.062 146.468 162.051C145.957 161.04 145.701 159.858 145.701 158.506C145.701 157.153 145.957 155.969 146.468 154.952C146.985 153.935 147.713 153.145 148.65 152.582C149.588 152.02 150.695 151.739 151.974 151.739C153.252 151.739 154.36 152.02 155.298 152.582C156.235 153.145 156.96 153.935 157.471 154.952C157.988 155.969 158.247 157.153 158.247 158.506C158.247 159.858 157.988 161.04 157.471 162.051C156.96 163.062 156.235 163.849 155.298 164.412C154.36 164.974 153.252 165.256 151.974 165.256ZM151.991 162.784C152.684 162.784 153.264 162.594 153.73 162.213C154.195 161.827 154.542 161.31 154.769 160.662C155.002 160.014 155.119 159.293 155.119 158.497C155.119 157.696 155.002 156.972 154.769 156.324C154.542 155.67 154.195 155.151 153.73 154.764C153.264 154.378 152.684 154.185 151.991 154.185C151.281 154.185 150.69 154.378 150.218 154.764C149.752 155.151 149.403 155.67 149.17 156.324C148.943 156.972 148.829 157.696 148.829 158.497C148.829 159.293 148.943 160.014 149.17 160.662C149.403 161.31 149.752 161.827 150.218 162.213C150.69 162.594 151.281 162.784 151.991 162.784ZM160.385 165V151.909H165.882C167.434 151.909 168.658 152.219 169.556 152.838C170.459 153.457 170.911 154.321 170.911 155.429C170.911 156.162 170.655 156.761 170.144 157.227C169.638 157.687 168.948 157.997 168.073 158.156C168.76 158.213 169.362 158.386 169.88 158.676C170.402 158.966 170.811 159.347 171.107 159.818C171.402 160.29 171.55 160.832 171.55 161.446C171.55 162.168 171.36 162.795 170.979 163.33C170.604 163.858 170.056 164.27 169.334 164.565C168.618 164.855 167.749 165 166.726 165H160.385ZM163.274 162.571H166.726C167.294 162.571 167.74 162.437 168.064 162.17C168.388 161.898 168.55 161.528 168.55 161.062C168.55 160.523 168.388 160.099 168.064 159.793C167.74 159.48 167.294 159.324 166.726 159.324H163.274V162.571ZM163.274 157.33H165.942C166.362 157.33 166.723 157.27 167.024 157.151C167.326 157.026 167.556 156.852 167.715 156.631C167.874 156.403 167.953 156.134 167.953 155.821C167.953 155.372 167.769 155.02 167.399 154.764C167.036 154.509 166.53 154.381 165.882 154.381H163.274V157.33Z" fill="white"/>
</svg>
