<svg width="412" height="194" viewBox="0 0 412 194" fill="none" xmlns="http://www.w3.org/2000/svg">
<path d="M253.135 46.1711H252.348C251.674 46.7602 248.921 47.2651 246.225 47.2651C244.483 47.2651 242.966 47.798 242.096 48.5835H240.972C240.635 39.9439 237.18 32.1178 231.702 26.1992L232.292 25.6101C233.528 25.7223 235.185 25.0211 236.562 23.6466C238.472 21.7391 240.775 20.1403 241.674 20.1122L242.236 19.5512C243.36 18.4292 243.051 16.2693 241.506 14.7265C239.961 13.1837 237.798 12.8752 236.674 13.9972L236.112 14.5582C236.056 15.4558 234.455 17.756 232.545 19.6634C231.309 20.8976 230.607 22.3282 230.551 23.5063L229.736 24.3198C223.837 18.878 216.056 15.4278 207.489 15.0631V14.0814C208.36 13.2398 208.978 11.641 208.978 9.78963C208.978 7.09679 209.483 4.34786 210.073 3.67465V2.88924C210.073 1.29036 208.303 0 206.14 0C203.978 0 202.208 1.29036 202.208 2.88924V3.67465C202.826 4.34786 203.303 7.09679 203.303 9.78963C203.303 11.641 203.893 13.2398 204.792 14.0814V15.0631C196.084 15.3436 188.191 18.8219 182.236 24.3478L181.646 23.7588C181.758 22.5245 181.056 20.8696 179.68 19.4951C177.77 17.5877 176.169 15.2875 176.112 14.3899L175.551 13.8289C174.427 12.7069 172.264 13.0154 170.719 14.5582C169.174 16.101 168.865 18.2609 169.989 19.3829L170.551 19.9439C171.449 20 173.753 21.5989 175.663 23.4783C176.899 24.7125 178.331 25.4137 179.511 25.4698L180.326 26.2833C174.82 32.202 171.365 40.0281 171.056 48.6676H170.213C169.427 47.7139 167.742 47.0407 165.803 47.0407C163.107 47.0407 160.354 46.5358 159.68 45.9467H158.893C157.292 45.9467 156 47.7139 156 49.8738C156 52.0337 157.292 53.8009 158.893 53.8009H159.68C160.354 53.1837 163.107 52.7069 165.803 52.7069C167.545 52.7069 169.062 52.1739 169.933 51.3885H171.056C171.393 60.0281 174.848 67.8541 180.326 73.7728L179.736 74.3619C178.5 74.2497 176.843 74.9509 175.466 76.3254C173.556 78.2328 171.253 79.8317 170.354 79.8597L169.792 80.4208C168.669 81.5428 168.978 83.7027 170.522 85.2455C172.067 86.7882 174.23 87.0968 175.354 85.9748L175.916 85.4138C175.972 84.5161 177.573 82.216 179.455 80.3085C180.691 79.0743 181.393 77.6157 181.449 76.4656L182.264 75.6522C188.219 81.1781 196.112 84.6283 204.82 84.9369V85.6662C203.781 86.3955 203.022 88.1627 203.022 90.2104C203.022 92.9032 202.517 95.6522 201.927 96.3254V97.1108C201.927 98.7097 203.697 100 205.86 100C208.022 100 209.792 98.7097 209.792 97.1108V96.3254C209.202 95.6522 208.697 92.9032 208.697 90.2104C208.697 88.5834 208.247 87.1529 207.517 86.2552V84.9369C216.112 84.5723 223.865 81.122 229.764 75.6802L230.354 76.2693C230.242 77.5035 230.944 79.1585 232.32 80.533C234.23 82.4404 235.832 84.7406 235.86 85.6382L236.421 86.1992C237.545 87.3212 239.708 87.0126 241.253 85.4698C242.798 83.9271 243.107 81.7672 241.983 80.6451L241.421 80.0841C240.522 80.028 238.219 78.4292 236.309 76.5498C235.073 75.3156 233.64 74.6143 232.461 74.5582L231.674 73.7728C237.18 67.8541 240.635 60.0281 240.944 51.3885H241.787C242.573 52.3422 244.258 53.0154 246.197 53.0154C248.893 53.0154 251.646 53.5203 252.32 54.1094H253.107C254.708 54.1094 256 52.3422 256 50.1824C256 48.0225 254.708 46.2553 253.107 46.2553L253.135 46.1711ZM241.112 15.0912C242.32 16.2973 242.545 18.0645 241.618 19.0463C242.011 17.9804 241.646 16.6059 240.635 15.5961C239.624 14.5863 238.219 14.2216 237.18 14.6143C238.163 13.6887 239.905 13.885 241.141 15.1193L241.112 15.0912ZM171.562 15.3717C170.551 16.3815 170.185 17.784 170.579 18.8219C169.652 17.8401 169.848 16.101 171.084 14.8668C172.292 13.6606 174.062 13.4362 175.045 14.3619C173.978 13.9692 172.601 14.3338 171.59 15.3436L171.562 15.3717ZM158.893 52.9593C157.545 52.9593 156.449 51.5288 156.449 49.8177C156.449 48.1066 157.545 46.7041 158.893 46.676C157.882 47.1529 157.152 48.3871 157.152 49.8177C157.152 51.2483 157.882 52.4825 158.893 52.9593ZM170.86 84.8247C169.652 83.6185 169.427 81.8513 170.354 80.8696C169.961 81.9355 170.326 83.31 171.337 84.3198C172.348 85.3296 173.753 85.6942 174.792 85.3015C173.809 86.2272 172.067 86.0309 170.831 84.7966L170.86 84.8247ZM240.41 84.5442C241.421 83.5344 241.787 82.1318 241.393 81.094C242.32 82.0477 242.124 83.8149 240.888 85.0491C239.68 86.2553 237.91 86.4796 236.927 85.554C237.966 85.9467 239.371 85.5821 240.382 84.5722L240.41 84.5442ZM202.994 2.94531C202.994 1.59889 204.427 0.504931 206.14 0.504931C207.854 0.504931 209.258 1.59889 209.287 2.94531C208.809 1.93549 207.573 1.20619 206.14 1.20619C204.708 1.20619 203.472 1.93549 202.994 2.94531ZM208.978 96.9705C208.978 98.317 207.545 99.4109 205.831 99.4109C204.118 99.4109 202.713 98.317 202.685 96.9705C203.163 97.9804 204.399 98.7097 205.831 98.7097C207.264 98.7097 208.5 97.9804 208.978 96.9705ZM205.972 81.7952C188.388 81.7952 174.09 67.5176 174.09 49.958C174.09 32.3983 188.388 18.1206 205.972 18.1206C223.556 18.1206 237.854 32.3983 237.854 49.958C237.854 67.5176 223.556 81.7952 205.972 81.7952ZM253.051 53.2398C254.062 52.763 254.792 51.5287 254.792 50.0982C254.792 48.6676 254.062 47.4334 253.051 46.9565C254.399 46.9565 255.494 48.3871 255.494 50.0982C255.494 51.8092 254.399 53.2118 253.051 53.2398Z" fill="#1D2361"/>
<path d="M205.999 47.7148C204.792 47.7148 203.78 48.6966 203.78 49.9308C203.78 51.165 204.763 52.1468 205.999 52.1468C207.235 52.1468 208.218 51.165 208.218 49.9308C208.218 48.6966 207.235 47.7148 205.999 47.7148ZM205.999 51.4456C205.157 51.4456 204.483 50.7723 204.483 49.9308C204.483 49.0893 205.157 48.4161 205.999 48.4161C206.842 48.4161 207.516 49.0893 207.516 49.9308C207.516 50.7723 206.842 51.4456 205.999 51.4456Z" fill="#1D2361"/>
<path d="M206 40.4492C200.776 40.4492 196.506 44.6848 196.506 49.9303C196.506 55.1757 200.747 59.4113 206 59.4113C211.253 59.4113 215.495 55.1757 215.495 49.9303C215.495 44.6848 211.225 40.4492 206 40.4492ZM213.837 48.5838H209.287L212.517 45.3581C213.191 46.3118 213.641 47.4057 213.865 48.5838H213.837ZM207.517 42.1322C208.641 42.3566 209.68 42.8054 210.579 43.4506L207.517 46.5081V42.1322ZM204.82 42.0761V46.8166L201.45 43.4506C202.433 42.7493 203.585 42.2725 204.82 42.1042V42.0761ZM199.54 45.3581L202.77 48.5838H198.219C198.416 47.4057 198.893 46.3118 199.568 45.3581H199.54ZM198.191 51.2767H202.742L199.511 54.5025C198.837 53.5488 198.388 52.4548 198.163 51.2767H198.191ZM204.82 57.7564C203.585 57.56 202.433 57.0831 201.45 56.4099L204.82 53.0439V57.7844V57.7564ZM203.332 49.9022C203.332 48.4155 204.54 47.2094 206.028 47.2094C207.517 47.2094 208.725 48.4155 208.725 49.9022C208.725 51.3889 207.517 52.595 206.028 52.595C204.54 52.595 203.332 51.3889 203.332 49.9022ZM207.517 57.7003V53.3244L210.579 56.3819C209.68 57.027 208.641 57.4758 207.517 57.7003ZM212.517 54.4745L209.287 51.2486H213.837C213.641 52.4268 213.163 53.5207 212.489 54.4745H212.517Z" fill="#1D2361"/>
<path d="M206 18.5703C188.669 18.5703 174.596 32.6516 174.596 49.9307C174.596 67.2098 188.697 81.2912 206 81.2912C223.304 81.2912 237.405 67.2098 237.405 49.9307C237.405 32.6516 223.304 18.5703 206 18.5703ZM206 79.7484C189.54 79.7484 176.141 66.3683 176.141 49.9307C176.141 33.4932 189.54 20.1131 206 20.1131C222.461 20.1131 235.86 33.4932 235.86 49.9307C235.86 66.3683 222.461 79.7484 206 79.7484Z" fill="#1D2361"/>
<path d="M206 21.543C190.326 21.543 177.545 34.2779 177.545 49.9581C177.545 65.6383 190.298 78.3732 206 78.3732C221.702 78.3732 234.455 65.6383 234.455 49.9581C234.455 34.2779 221.702 21.543 206 21.543ZM207.517 23.1699C213.837 23.5065 219.596 26.0591 224.006 30.0423L213.36 40.6734C211.702 39.355 209.708 38.4855 207.489 38.205V23.1699H207.517ZM204.82 23.1699V38.1769C202.517 38.4013 200.382 39.2989 198.669 40.6734L188.022 30.0423C192.517 26.003 198.36 23.4223 204.82 23.1418V23.1699ZM186.112 31.9778L196.758 42.6089C195.41 44.2919 194.511 46.3676 194.258 48.6117H179.23C179.539 42.2162 182.095 36.4378 186.14 31.9778H186.112ZM179.202 51.3045H194.258C194.511 53.5486 195.41 55.6243 196.758 57.3073L186.112 67.9384C182.095 63.5065 179.539 57.7 179.202 51.3045ZM204.82 76.7463C198.36 76.4658 192.517 73.9132 188.022 69.8459L198.669 59.2147C200.41 60.5892 202.517 61.4868 204.82 61.7112V76.7183V76.7463ZM195.607 49.9581C195.607 44.2078 200.27 39.5514 206.028 39.5514C211.787 39.5514 216.449 44.2358 216.449 49.9581C216.449 55.6804 211.787 60.3648 206.028 60.3648C200.27 60.3648 195.607 55.6804 195.607 49.9581ZM207.545 76.7183V61.6832C209.736 61.4027 211.758 60.5331 213.416 59.2147L224.062 69.8459C219.652 73.8291 213.893 76.3817 207.573 76.7183H207.545ZM225.944 67.9384L215.298 57.3073C216.646 55.6243 217.517 53.5486 217.798 51.3045H232.826C232.517 57.7 229.961 63.4784 225.944 67.9384ZM217.798 48.6117C217.545 46.3676 216.646 44.2919 215.298 42.6089L225.944 31.9778C229.961 36.4097 232.517 42.2162 232.826 48.6117H217.798Z" fill="#1D2361"/>
<path d="M61.0721 132.273C61.0721 134.153 60.7198 135.764 60.0153 137.105C59.3164 138.44 58.3619 139.463 57.1516 140.173C55.9471 140.884 54.5806 141.239 53.0522 141.239C51.5238 141.239 50.1545 140.884 48.9442 140.173C47.7397 139.457 46.7852 138.432 46.0806 137.097C45.3817 135.756 45.0323 134.148 45.0323 132.273C45.0323 130.392 45.3817 128.784 46.0806 127.449C46.7852 126.108 47.7397 125.082 48.9442 124.372C50.1545 123.662 51.5238 123.307 53.0522 123.307C54.5806 123.307 55.9471 123.662 57.1516 124.372C58.3619 125.082 59.3164 126.108 60.0153 127.449C60.7198 128.784 61.0721 130.392 61.0721 132.273ZM57.8931 132.273C57.8931 130.949 57.6857 129.832 57.271 128.923C56.8619 128.009 56.2937 127.318 55.5664 126.852C54.8391 126.381 54.0011 126.145 53.0522 126.145C52.1033 126.145 51.2653 126.381 50.538 126.852C49.8107 127.318 49.2397 128.009 48.8249 128.923C48.4158 129.832 48.2113 130.949 48.2113 132.273C48.2113 133.597 48.4158 134.716 48.8249 135.631C49.2397 136.54 49.8107 137.23 50.538 137.702C51.2653 138.168 52.1033 138.401 53.0522 138.401C54.0011 138.401 54.8391 138.168 55.5664 137.702C56.2937 137.23 56.8619 136.54 57.271 135.631C57.6857 134.716 57.8931 133.597 57.8931 132.273ZM62.7292 130.44V127.909H74.1837V130.44H69.9479V141H66.965V130.44H62.7292ZM76.1604 141V127.909H87.2144V141H84.2399V130.44H79.1092V141H76.1604ZM89.9069 145.909V127.909H92.941V130.074H93.12C93.2791 129.756 93.5035 129.418 93.7933 129.06C94.0831 128.696 94.4751 128.386 94.9694 128.131C95.4638 127.869 96.0944 127.739 96.8615 127.739C97.8729 127.739 98.7848 127.997 99.5973 128.514C100.415 129.026 101.063 129.784 101.54 130.79C102.023 131.79 102.265 133.017 102.265 134.472C102.265 135.909 102.029 137.131 101.558 138.136C101.086 139.142 100.444 139.909 99.6314 140.438C98.8189 140.966 97.8984 141.23 96.87 141.23C96.12 141.23 95.4979 141.105 95.0035 140.855C94.5092 140.605 94.1115 140.304 93.8104 139.952C93.5149 139.594 93.2848 139.256 93.12 138.938H92.9922V145.909H89.9069ZM92.9325 134.455C92.9325 135.301 93.0518 136.043 93.2905 136.679C93.5348 137.315 93.8842 137.812 94.3388 138.17C94.799 138.523 95.3558 138.699 96.0092 138.699C96.691 138.699 97.2621 138.517 97.7223 138.153C98.1825 137.784 98.5291 137.281 98.7621 136.645C99.0007 136.003 99.12 135.273 99.12 134.455C99.12 133.642 99.0035 132.92 98.7706 132.29C98.5376 131.659 98.191 131.165 97.7308 130.807C97.2706 130.449 96.6967 130.27 96.0092 130.27C95.3501 130.27 94.7905 130.443 94.3302 130.79C93.87 131.136 93.5206 131.622 93.2819 132.247C93.049 132.872 92.9325 133.608 92.9325 134.455ZM108.194 141.264C107.364 141.264 106.617 141.116 105.953 140.821C105.293 140.52 104.771 140.077 104.384 139.491C104.004 138.906 103.813 138.185 103.813 137.327C103.813 136.588 103.95 135.977 104.222 135.494C104.495 135.011 104.867 134.625 105.339 134.335C105.81 134.045 106.342 133.827 106.933 133.679C107.529 133.526 108.146 133.415 108.782 133.347C109.549 133.267 110.171 133.196 110.649 133.134C111.126 133.065 111.472 132.963 111.688 132.827C111.91 132.685 112.021 132.466 112.021 132.17V132.119C112.021 131.477 111.83 130.98 111.45 130.628C111.069 130.276 110.521 130.099 109.805 130.099C109.049 130.099 108.45 130.264 108.006 130.594C107.569 130.923 107.274 131.312 107.12 131.761L104.239 131.352C104.467 130.557 104.842 129.892 105.364 129.358C105.887 128.818 106.526 128.415 107.282 128.148C108.038 127.875 108.873 127.739 109.788 127.739C110.418 127.739 111.046 127.812 111.671 127.96C112.296 128.108 112.867 128.352 113.384 128.693C113.901 129.028 114.316 129.486 114.629 130.065C114.947 130.645 115.106 131.369 115.106 132.239V141H112.14V139.202H112.038C111.85 139.565 111.586 139.906 111.245 140.224C110.91 140.537 110.487 140.79 109.975 140.983C109.47 141.17 108.876 141.264 108.194 141.264ZM108.995 138.997C109.614 138.997 110.151 138.875 110.606 138.631C111.06 138.381 111.41 138.051 111.654 137.642C111.904 137.233 112.029 136.787 112.029 136.304V134.761C111.933 134.841 111.768 134.915 111.535 134.983C111.308 135.051 111.052 135.111 110.768 135.162C110.484 135.213 110.203 135.259 109.924 135.298C109.646 135.338 109.404 135.372 109.2 135.401C108.739 135.463 108.328 135.565 107.964 135.707C107.6 135.849 107.313 136.048 107.103 136.304C106.893 136.554 106.788 136.878 106.788 137.276C106.788 137.844 106.995 138.273 107.41 138.562C107.825 138.852 108.353 138.997 108.995 138.997ZM117.728 141V127.909H123.225C124.776 127.909 126.001 128.219 126.899 128.838C127.802 129.457 128.254 130.321 128.254 131.429C128.254 132.162 127.998 132.761 127.487 133.227C126.981 133.687 126.291 133.997 125.416 134.156C126.103 134.213 126.705 134.386 127.223 134.676C127.745 134.966 128.154 135.347 128.45 135.818C128.745 136.29 128.893 136.832 128.893 137.446C128.893 138.168 128.703 138.795 128.322 139.33C127.947 139.858 127.399 140.27 126.677 140.565C125.961 140.855 125.092 141 124.069 141H117.728ZM120.617 138.571H124.069C124.637 138.571 125.083 138.437 125.407 138.17C125.731 137.898 125.893 137.528 125.893 137.062C125.893 136.523 125.731 136.099 125.407 135.793C125.083 135.48 124.637 135.324 124.069 135.324H120.617V138.571ZM120.617 133.33H123.285C123.705 133.33 124.066 133.27 124.367 133.151C124.669 133.026 124.899 132.852 125.058 132.631C125.217 132.403 125.296 132.134 125.296 131.821C125.296 131.372 125.112 131.02 124.742 130.764C124.379 130.509 123.873 130.381 123.225 130.381H120.617V133.33ZM133.047 132.17H136.908C138.578 132.17 139.871 132.577 140.786 133.389C141.701 134.202 142.161 135.267 142.167 136.585C142.161 137.443 141.951 138.205 141.536 138.869C141.127 139.534 140.53 140.057 139.746 140.438C138.968 140.812 138.022 141 136.908 141H130.959V127.909H133.934V138.469H136.908C137.578 138.469 138.13 138.298 138.561 137.957C138.993 137.611 139.209 137.168 139.209 136.628C139.209 136.06 138.993 135.597 138.561 135.239C138.13 134.881 137.578 134.702 136.908 134.702H133.047V132.17ZM150.041 141.256C148.734 141.256 147.612 140.969 146.674 140.395C145.743 139.821 145.024 139.028 144.518 138.017C144.018 137 143.768 135.83 143.768 134.506C143.768 133.176 144.024 132.003 144.535 130.986C145.047 129.963 145.768 129.168 146.7 128.599C147.638 128.026 148.745 127.739 150.024 127.739C151.086 127.739 152.027 127.935 152.845 128.327C153.669 128.713 154.325 129.261 154.814 129.972C155.302 130.676 155.581 131.5 155.649 132.443H152.7C152.581 131.812 152.297 131.287 151.848 130.866C151.405 130.44 150.811 130.227 150.066 130.227C149.436 130.227 148.882 130.398 148.405 130.739C147.927 131.074 147.555 131.557 147.288 132.188C147.027 132.818 146.896 133.574 146.896 134.455C146.896 135.347 147.027 136.114 147.288 136.756C147.549 137.392 147.916 137.884 148.388 138.23C148.865 138.571 149.424 138.741 150.066 138.741C150.521 138.741 150.927 138.656 151.285 138.486C151.649 138.31 151.953 138.057 152.197 137.727C152.441 137.398 152.609 136.997 152.7 136.526H155.649C155.575 137.452 155.302 138.273 154.831 138.989C154.359 139.699 153.717 140.256 152.905 140.659C152.092 141.057 151.138 141.256 150.041 141.256ZM165.441 141V130.415H162.645C161.935 130.415 161.39 130.58 161.009 130.909C160.628 131.239 160.441 131.648 160.447 132.136C160.441 132.625 160.62 133.028 160.984 133.347C161.347 133.665 161.867 133.824 162.543 133.824H166.412V136.074H162.543C161.498 136.074 160.594 135.909 159.833 135.58C159.072 135.25 158.486 134.784 158.077 134.182C157.668 133.58 157.464 132.875 157.464 132.068C157.464 131.227 157.671 130.497 158.086 129.878C158.506 129.253 159.103 128.77 159.876 128.429C160.654 128.082 161.577 127.909 162.645 127.909H168.33V141H165.441ZM156.986 141L160.643 134.284H163.685L160.02 141H156.986ZM176.43 141V127.909H181.927C183.478 127.909 184.702 128.219 185.6 128.838C186.504 129.457 186.955 130.321 186.955 131.429C186.955 132.162 186.7 132.761 186.188 133.227C185.683 133.687 184.992 133.997 184.117 134.156C184.805 134.213 185.407 134.386 185.924 134.676C186.447 134.966 186.856 135.347 187.151 135.818C187.447 136.29 187.595 136.832 187.595 137.446C187.595 138.168 187.404 138.795 187.024 139.33C186.649 139.858 186.1 140.27 185.379 140.565C184.663 140.855 183.793 141 182.771 141H176.43ZM179.319 138.571H182.771C183.339 138.571 183.785 138.437 184.109 138.17C184.433 137.898 184.595 137.528 184.595 137.062C184.595 136.523 184.433 136.099 184.109 135.793C183.785 135.48 183.339 135.324 182.771 135.324H179.319V138.571ZM179.319 133.33H181.987C182.407 133.33 182.768 133.27 183.069 133.151C183.37 133.026 183.6 132.852 183.759 132.631C183.918 132.403 183.998 132.134 183.998 131.821C183.998 131.372 183.813 131.02 183.444 130.764C183.08 130.509 182.575 130.381 181.927 130.381H179.319V133.33ZM197.051 145.909C196.631 145.909 196.242 145.875 195.884 145.807C195.532 145.744 195.25 145.67 195.04 145.585L195.756 143.182C196.205 143.313 196.605 143.375 196.958 143.369C197.31 143.364 197.62 143.253 197.887 143.037C198.159 142.827 198.39 142.474 198.577 141.98L198.841 141.273L194.094 127.909H197.367L200.384 137.795H200.52L203.546 127.909H206.827L201.586 142.585C201.341 143.278 201.017 143.872 200.614 144.366C200.211 144.866 199.716 145.247 199.131 145.509C198.551 145.776 197.858 145.909 197.051 145.909ZM208.482 141V127.909H213.979C215.53 127.909 216.755 128.219 217.652 128.838C218.556 129.457 219.008 130.321 219.008 131.429C219.008 132.162 218.752 132.761 218.24 133.227C217.735 133.687 217.044 133.997 216.169 134.156C216.857 134.213 217.459 134.386 217.976 134.676C218.499 134.966 218.908 135.347 219.204 135.818C219.499 136.29 219.647 136.832 219.647 137.446C219.647 138.168 219.456 138.795 219.076 139.33C218.701 139.858 218.152 140.27 217.431 140.565C216.715 140.855 215.846 141 214.823 141H208.482ZM211.371 138.571H214.823C215.391 138.571 215.837 138.437 216.161 138.17C216.485 137.898 216.647 137.528 216.647 137.062C216.647 136.523 216.485 136.099 216.161 135.793C215.837 135.48 215.391 135.324 214.823 135.324H211.371V138.571ZM211.371 133.33H214.039C214.459 133.33 214.82 133.27 215.121 133.151C215.422 133.026 215.652 132.852 215.811 132.631C215.971 132.403 216.05 132.134 216.05 131.821C216.05 131.372 215.865 131.02 215.496 130.764C215.133 130.509 214.627 130.381 213.979 130.381H211.371V133.33ZM220.809 141L220.792 138.46H221.244C221.585 138.46 221.872 138.384 222.105 138.23C222.338 138.077 222.531 137.821 222.684 137.463C222.838 137.099 222.957 136.611 223.042 135.997C223.128 135.384 223.187 134.619 223.221 133.705L223.452 127.909H232.997V141H230.014V130.44H226.255L226.051 134.659C226 135.75 225.878 136.696 225.684 137.497C225.497 138.293 225.23 138.949 224.883 139.466C224.542 139.983 224.113 140.369 223.596 140.625C223.079 140.875 222.469 141 221.764 141H220.809ZM241.419 141.256C240.106 141.256 238.973 140.983 238.018 140.438C237.07 139.886 236.339 139.108 235.828 138.102C235.317 137.091 235.061 135.901 235.061 134.531C235.061 133.185 235.317 132.003 235.828 130.986C236.345 129.963 237.067 129.168 237.993 128.599C238.919 128.026 240.007 127.739 241.257 127.739C242.064 127.739 242.825 127.869 243.541 128.131C244.263 128.386 244.899 128.784 245.45 129.324C246.007 129.864 246.445 130.551 246.763 131.386C247.081 132.216 247.24 133.205 247.24 134.352V135.298H236.51V133.219H244.283C244.277 132.628 244.149 132.102 243.899 131.642C243.649 131.176 243.3 130.81 242.851 130.543C242.408 130.276 241.891 130.142 241.3 130.142C240.669 130.142 240.115 130.295 239.638 130.602C239.16 130.903 238.788 131.301 238.521 131.795C238.26 132.284 238.126 132.821 238.121 133.406V135.222C238.121 135.983 238.26 136.636 238.538 137.182C238.817 137.722 239.206 138.136 239.706 138.426C240.206 138.71 240.791 138.852 241.462 138.852C241.91 138.852 242.317 138.79 242.68 138.665C243.044 138.534 243.359 138.344 243.626 138.094C243.893 137.844 244.095 137.534 244.231 137.165L247.112 137.489C246.93 138.25 246.584 138.915 246.072 139.483C245.567 140.045 244.919 140.483 244.129 140.795C243.339 141.102 242.436 141.256 241.419 141.256ZM249.37 141V127.909H252.455V133.193H253.58L257.518 127.909H261.234L256.384 134.335L261.285 141H257.552L253.964 136.065H252.455V141H249.37ZM266.321 141.264C265.492 141.264 264.744 141.116 264.08 140.821C263.421 140.52 262.898 140.077 262.512 139.491C262.131 138.906 261.94 138.185 261.94 137.327C261.94 136.588 262.077 135.977 262.35 135.494C262.622 135.011 262.994 134.625 263.466 134.335C263.938 134.045 264.469 133.827 265.06 133.679C265.656 133.526 266.273 133.415 266.909 133.347C267.676 133.267 268.298 133.196 268.776 133.134C269.253 133.065 269.6 132.963 269.815 132.827C270.037 132.685 270.148 132.466 270.148 132.17V132.119C270.148 131.477 269.958 130.98 269.577 130.628C269.196 130.276 268.648 130.099 267.932 130.099C267.176 130.099 266.577 130.264 266.134 130.594C265.696 130.923 265.401 131.312 265.247 131.761L262.367 131.352C262.594 130.557 262.969 129.892 263.492 129.358C264.014 128.818 264.654 128.415 265.409 128.148C266.165 127.875 267 127.739 267.915 127.739C268.546 127.739 269.173 127.812 269.798 127.96C270.423 128.108 270.994 128.352 271.512 128.693C272.029 129.028 272.443 129.486 272.756 130.065C273.074 130.645 273.233 131.369 273.233 132.239V141H270.267V139.202H270.165C269.977 139.565 269.713 139.906 269.372 140.224C269.037 140.537 268.614 140.79 268.102 140.983C267.597 141.17 267.003 141.264 266.321 141.264ZM267.122 138.997C267.742 138.997 268.279 138.875 268.733 138.631C269.188 138.381 269.537 138.051 269.781 137.642C270.031 137.233 270.156 136.787 270.156 136.304V134.761C270.06 134.841 269.895 134.915 269.662 134.983C269.435 135.051 269.179 135.111 268.895 135.162C268.611 135.213 268.33 135.259 268.051 135.298C267.773 135.338 267.531 135.372 267.327 135.401C266.867 135.463 266.455 135.565 266.091 135.707C265.727 135.849 265.44 136.048 265.23 136.304C265.02 136.554 264.915 136.878 264.915 137.276C264.915 137.844 265.122 138.273 265.537 138.562C265.952 138.852 266.48 138.997 267.122 138.997ZM274.389 130.44V127.909H285.844V130.44H281.608V141H278.625V130.44H274.389ZM293.077 141.256C291.765 141.256 290.631 140.983 289.677 140.438C288.728 139.886 287.998 139.108 287.486 138.102C286.975 137.091 286.719 135.901 286.719 134.531C286.719 133.185 286.975 132.003 287.486 130.986C288.003 129.963 288.725 129.168 289.651 128.599C290.577 128.026 291.665 127.739 292.915 127.739C293.722 127.739 294.483 127.869 295.199 128.131C295.921 128.386 296.557 128.784 297.108 129.324C297.665 129.864 298.103 130.551 298.421 131.386C298.739 132.216 298.898 133.205 298.898 134.352V135.298H288.168V133.219H295.941C295.935 132.628 295.807 132.102 295.557 131.642C295.307 131.176 294.958 130.81 294.509 130.543C294.066 130.276 293.549 130.142 292.958 130.142C292.327 130.142 291.773 130.295 291.296 130.602C290.819 130.903 290.446 131.301 290.179 131.795C289.918 132.284 289.784 132.821 289.779 133.406V135.222C289.779 135.983 289.918 136.636 290.196 137.182C290.475 137.722 290.864 138.136 291.364 138.426C291.864 138.71 292.449 138.852 293.12 138.852C293.569 138.852 293.975 138.79 294.338 138.665C294.702 138.534 295.017 138.344 295.284 138.094C295.552 137.844 295.753 137.534 295.89 137.165L298.77 137.489C298.588 138.25 298.242 138.915 297.731 139.483C297.225 140.045 296.577 140.483 295.787 140.795C294.998 141.102 294.094 141.256 293.077 141.256ZM300.125 141L300.108 138.46H300.559C300.9 138.46 301.187 138.384 301.42 138.23C301.653 138.077 301.846 137.821 302 137.463C302.153 137.099 302.273 136.611 302.358 135.997C302.443 135.384 302.503 134.619 302.537 133.705L302.767 127.909H312.312V141H309.329V130.44H305.571L305.366 134.659C305.315 135.75 305.193 136.696 305 137.497C304.812 138.293 304.545 138.949 304.199 139.466C303.858 139.983 303.429 140.369 302.912 140.625C302.395 140.875 301.784 141 301.079 141H300.125ZM317.027 132.17H320.888C322.558 132.17 323.851 132.577 324.766 133.389C325.68 134.202 326.141 135.267 326.146 136.585C326.141 137.443 325.93 138.205 325.516 138.869C325.106 139.534 324.51 140.057 323.726 140.438C322.947 140.812 322.001 141 320.888 141H314.939V127.909H317.913V138.469H320.888C321.558 138.469 322.109 138.298 322.541 137.957C322.973 137.611 323.189 137.168 323.189 136.628C323.189 136.06 322.973 135.597 322.541 135.239C322.109 134.881 321.558 134.702 320.888 134.702H317.027V132.17ZM337.302 133.176V135.707H330.33V133.176H337.302ZM331.285 127.909V141H328.31V127.909H331.285ZM339.322 127.909V141H336.356V127.909H339.322ZM347.673 141.256C346.395 141.256 345.287 140.974 344.35 140.412C343.412 139.849 342.685 139.062 342.168 138.051C341.656 137.04 341.401 135.858 341.401 134.506C341.401 133.153 341.656 131.969 342.168 130.952C342.685 129.935 343.412 129.145 344.35 128.582C345.287 128.02 346.395 127.739 347.673 127.739C348.952 127.739 350.06 128.02 350.997 128.582C351.935 129.145 352.659 129.935 353.171 130.952C353.688 131.969 353.946 133.153 353.946 134.506C353.946 135.858 353.688 137.04 353.171 138.051C352.659 139.062 351.935 139.849 350.997 140.412C350.06 140.974 348.952 141.256 347.673 141.256ZM347.69 138.784C348.384 138.784 348.963 138.594 349.429 138.213C349.895 137.827 350.242 137.31 350.469 136.662C350.702 136.014 350.818 135.293 350.818 134.497C350.818 133.696 350.702 132.972 350.469 132.324C350.242 131.67 349.895 131.151 349.429 130.764C348.963 130.378 348.384 130.185 347.69 130.185C346.98 130.185 346.389 130.378 345.918 130.764C345.452 131.151 345.102 131.67 344.869 132.324C344.642 132.972 344.529 133.696 344.529 134.497C344.529 135.293 344.642 136.014 344.869 136.662C345.102 137.31 345.452 137.827 345.918 138.213C346.389 138.594 346.98 138.784 347.69 138.784ZM361.88 141.256C360.568 141.256 359.434 140.983 358.48 140.438C357.531 139.886 356.801 139.108 356.289 138.102C355.778 137.091 355.522 135.901 355.522 134.531C355.522 133.185 355.778 132.003 356.289 130.986C356.806 129.963 357.528 129.168 358.454 128.599C359.38 128.026 360.468 127.739 361.718 127.739C362.525 127.739 363.286 127.869 364.002 128.131C364.724 128.386 365.36 128.784 365.911 129.324C366.468 129.864 366.906 130.551 367.224 131.386C367.542 132.216 367.701 133.205 367.701 134.352V135.298H356.971V133.219H364.744C364.738 132.628 364.61 132.102 364.36 131.642C364.11 131.176 363.761 130.81 363.312 130.543C362.869 130.276 362.352 130.142 361.761 130.142C361.13 130.142 360.576 130.295 360.099 130.602C359.622 130.903 359.25 131.301 358.982 131.795C358.721 132.284 358.588 132.821 358.582 133.406V135.222C358.582 135.983 358.721 136.636 359 137.182C359.278 137.722 359.667 138.136 360.167 138.426C360.667 138.71 361.252 138.852 361.923 138.852C362.372 138.852 362.778 138.79 363.142 138.665C363.505 138.534 363.821 138.344 364.088 138.094C364.355 137.844 364.556 137.534 364.693 137.165L367.573 137.489C367.392 138.25 367.045 138.915 366.534 139.483C366.028 140.045 365.38 140.483 364.59 140.795C363.801 141.102 362.897 141.256 361.88 141.256ZM40.8743 165V151.909H51.9283V165H48.9538V154.44H43.8232V165H40.8743ZM56.0697 169.909C55.6493 169.909 55.2601 169.875 54.9021 169.807C54.5498 169.744 54.2686 169.67 54.0584 169.585L54.7743 167.182C55.2231 167.313 55.6237 167.375 55.976 167.369C56.3282 167.364 56.6379 167.253 56.9049 167.037C57.1777 166.827 57.4078 166.474 57.5953 165.98L57.8595 165.273L53.1123 151.909H56.3851L59.4021 161.795H59.5385L62.564 151.909H65.8453L60.6038 166.585C60.3595 167.278 60.0356 167.872 59.6322 168.366C59.2288 168.866 58.7345 169.247 58.1493 169.509C57.5697 169.776 56.8765 169.909 56.0697 169.909ZM66.7843 154.44V151.909H78.2389V154.44H74.0031V165H71.0201V154.44H66.7843ZM85.4719 165.256C84.1594 165.256 83.0259 164.983 82.0714 164.438C81.1225 163.886 80.3924 163.108 79.881 162.102C79.3697 161.091 79.114 159.901 79.114 158.531C79.114 157.185 79.3697 156.003 79.881 154.986C80.3981 153.963 81.1197 153.168 82.0458 152.599C82.9719 152.026 84.06 151.739 85.31 151.739C86.1168 151.739 86.8782 151.869 87.5941 152.131C88.3157 152.386 88.952 152.784 89.5032 153.324C90.06 153.864 90.4975 154.551 90.8157 155.386C91.1339 156.216 91.293 157.205 91.293 158.352V159.298H80.5628V157.219H88.3356C88.3299 156.628 88.202 156.102 87.952 155.642C87.702 155.176 87.3526 154.81 86.9037 154.543C86.4606 154.276 85.9435 154.142 85.3526 154.142C84.7219 154.142 84.168 154.295 83.6907 154.602C83.2134 154.903 82.8412 155.301 82.5742 155.795C82.3128 156.284 82.1793 156.821 82.1736 157.406V159.222C82.1736 159.983 82.3128 160.636 82.5912 161.182C82.8697 161.722 83.2589 162.136 83.7589 162.426C84.2589 162.71 84.8441 162.852 85.5145 162.852C85.9634 162.852 86.3697 162.79 86.7333 162.665C87.0969 162.534 87.4123 162.344 87.6793 162.094C87.9464 161.844 88.1481 161.534 88.2844 161.165L91.1651 161.489C90.9833 162.25 90.6367 162.915 90.1253 163.483C89.6197 164.045 88.9719 164.483 88.1822 164.795C87.3924 165.102 86.489 165.256 85.4719 165.256ZM93.423 151.909H96.3975V162.46H100.514V151.909H103.488V162.46H107.605V151.909H110.579V165H93.423V151.909ZM119.012 165.256C117.699 165.256 116.566 164.983 115.611 164.438C114.662 163.886 113.932 163.108 113.421 162.102C112.91 161.091 112.654 159.901 112.654 158.531C112.654 157.185 112.91 156.003 113.421 154.986C113.938 153.963 114.66 153.168 115.586 152.599C116.512 152.026 117.6 151.739 118.85 151.739C119.657 151.739 120.418 151.869 121.134 152.131C121.856 152.386 122.492 152.784 123.043 153.324C123.6 153.864 124.037 154.551 124.356 155.386C124.674 156.216 124.833 157.205 124.833 158.352V159.298H114.103V157.219H121.876C121.87 156.628 121.742 156.102 121.492 155.642C121.242 155.176 120.893 154.81 120.444 154.543C120.001 154.276 119.484 154.142 118.893 154.142C118.262 154.142 117.708 154.295 117.231 154.602C116.753 154.903 116.381 155.301 116.114 155.795C115.853 156.284 115.719 156.821 115.714 157.406V159.222C115.714 159.983 115.853 160.636 116.131 161.182C116.41 161.722 116.799 162.136 117.299 162.426C117.799 162.71 118.384 162.852 119.055 162.852C119.503 162.852 119.91 162.79 120.273 162.665C120.637 162.534 120.952 162.344 121.219 162.094C121.486 161.844 121.688 161.534 121.824 161.165L124.705 161.489C124.523 162.25 124.177 162.915 123.665 163.483C123.16 164.045 122.512 164.483 121.722 164.795C120.932 165.102 120.029 165.256 119.012 165.256ZM132.673 165.256C131.366 165.256 130.244 164.969 129.307 164.395C128.375 163.821 127.656 163.028 127.151 162.017C126.651 161 126.401 159.83 126.401 158.506C126.401 157.176 126.656 156.003 127.168 154.986C127.679 153.963 128.401 153.168 129.332 152.599C130.27 152.026 131.378 151.739 132.656 151.739C133.719 151.739 134.659 151.935 135.477 152.327C136.301 152.713 136.957 153.261 137.446 153.972C137.935 154.676 138.213 155.5 138.281 156.443H135.332C135.213 155.812 134.929 155.287 134.48 154.866C134.037 154.44 133.443 154.227 132.699 154.227C132.068 154.227 131.514 154.398 131.037 154.739C130.56 155.074 130.187 155.557 129.92 156.188C129.659 156.818 129.528 157.574 129.528 158.455C129.528 159.347 129.659 160.114 129.92 160.756C130.182 161.392 130.548 161.884 131.02 162.23C131.497 162.571 132.057 162.741 132.699 162.741C133.153 162.741 133.56 162.656 133.918 162.486C134.281 162.31 134.585 162.057 134.83 161.727C135.074 161.398 135.241 160.997 135.332 160.526H138.281C138.207 161.452 137.935 162.273 137.463 162.989C136.991 163.699 136.349 164.256 135.537 164.659C134.724 165.057 133.77 165.256 132.673 165.256ZM139.384 154.44V151.909H150.839V154.44H146.603V165H143.62V154.44H139.384ZM152.816 165V151.909H158.313C159.864 151.909 161.088 152.219 161.986 152.838C162.889 153.457 163.341 154.321 163.341 155.429C163.341 156.162 163.085 156.761 162.574 157.227C162.068 157.687 161.378 157.997 160.503 158.156C161.191 158.213 161.793 158.386 162.31 158.676C162.833 158.966 163.242 159.347 163.537 159.818C163.833 160.29 163.98 160.832 163.98 161.446C163.98 162.168 163.79 162.795 163.409 163.33C163.034 163.858 162.486 164.27 161.764 164.565C161.048 164.855 160.179 165 159.156 165H152.816ZM155.705 162.571H159.156C159.725 162.571 160.171 162.437 160.495 162.17C160.818 161.898 160.98 161.528 160.98 161.062C160.98 160.523 160.818 160.099 160.495 159.793C160.171 159.48 159.725 159.324 159.156 159.324H155.705V162.571ZM155.705 157.33H158.372C158.793 157.33 159.154 157.27 159.455 157.151C159.756 157.026 159.986 156.852 160.145 156.631C160.304 156.403 160.384 156.134 160.384 155.821C160.384 155.372 160.199 155.02 159.83 154.764C159.466 154.509 158.96 154.381 158.313 154.381H155.705V157.33ZM169.021 160.824L174.262 151.909H177.433V165H174.45V156.077L169.225 165H166.046V151.909H169.021V160.824ZM185.917 165.256C184.604 165.256 183.471 164.983 182.516 164.438C181.567 163.886 180.837 163.108 180.326 162.102C179.814 161.091 179.559 159.901 179.559 158.531C179.559 157.185 179.814 156.003 180.326 154.986C180.843 153.963 181.564 153.168 182.49 152.599C183.417 152.026 184.505 151.739 185.755 151.739C186.562 151.739 187.323 151.869 188.039 152.131C188.76 152.386 189.397 152.784 189.948 153.324C190.505 153.864 190.942 154.551 191.26 155.386C191.579 156.216 191.738 157.205 191.738 158.352V159.298H181.008V157.219H188.78C188.775 156.628 188.647 156.102 188.397 155.642C188.147 155.176 187.797 154.81 187.348 154.543C186.905 154.276 186.388 154.142 185.797 154.142C185.167 154.142 184.613 154.295 184.135 154.602C183.658 154.903 183.286 155.301 183.019 155.795C182.758 156.284 182.624 156.821 182.618 157.406V159.222C182.618 159.983 182.758 160.636 183.036 161.182C183.314 161.722 183.704 162.136 184.204 162.426C184.704 162.71 185.289 162.852 185.959 162.852C186.408 162.852 186.814 162.79 187.178 162.665C187.542 162.534 187.857 162.344 188.124 162.094C188.391 161.844 188.593 161.534 188.729 161.165L191.61 161.489C191.428 162.25 191.081 162.915 190.57 163.483C190.064 164.045 189.417 164.483 188.627 164.795C187.837 165.102 186.934 165.256 185.917 165.256ZM199.341 165V151.909H210.395V165H207.42V154.44H202.29V165H199.341ZM218.798 165.256C217.519 165.256 216.411 164.974 215.474 164.412C214.536 163.849 213.809 163.062 213.292 162.051C212.781 161.04 212.525 159.858 212.525 158.506C212.525 157.153 212.781 155.969 213.292 154.952C213.809 153.935 214.536 153.145 215.474 152.582C216.411 152.02 217.519 151.739 218.798 151.739C220.076 151.739 221.184 152.02 222.122 152.582C223.059 153.145 223.783 153.935 224.295 154.952C224.812 155.969 225.07 157.153 225.07 158.506C225.07 159.858 224.812 161.04 224.295 162.051C223.783 163.062 223.059 163.849 222.122 164.412C221.184 164.974 220.076 165.256 218.798 165.256ZM218.815 162.784C219.508 162.784 220.087 162.594 220.553 162.213C221.019 161.827 221.366 161.31 221.593 160.662C221.826 160.014 221.943 159.293 221.943 158.497C221.943 157.696 221.826 156.972 221.593 156.324C221.366 155.67 221.019 155.151 220.553 154.764C220.087 154.378 219.508 154.185 218.815 154.185C218.104 154.185 217.514 154.378 217.042 154.764C216.576 155.151 216.227 155.67 215.994 156.324C215.766 156.972 215.653 157.696 215.653 158.497C215.653 159.293 215.766 160.014 215.994 160.662C216.227 161.31 216.576 161.827 217.042 162.213C217.514 162.594 218.104 162.784 218.815 162.784ZM231.958 161.412H235.017C235.046 161.901 235.264 162.278 235.674 162.545C236.083 162.812 236.614 162.946 237.267 162.946C237.932 162.946 238.492 162.801 238.946 162.511C239.407 162.216 239.637 161.77 239.637 161.173C239.637 160.821 239.549 160.511 239.372 160.244C239.196 159.972 238.949 159.761 238.631 159.614C238.313 159.466 237.938 159.392 237.506 159.392H235.503V157.202H237.506C238.148 157.202 238.634 157.054 238.963 156.759C239.299 156.463 239.466 156.091 239.466 155.642C239.466 155.159 239.29 154.767 238.938 154.466C238.591 154.165 238.111 154.014 237.497 154.014C236.884 154.014 236.372 154.153 235.963 154.432C235.56 154.71 235.35 155.068 235.333 155.506H232.29C232.301 154.744 232.529 154.082 232.972 153.52C233.421 152.957 234.023 152.52 234.779 152.207C235.54 151.895 236.398 151.739 237.353 151.739C238.375 151.739 239.259 151.892 240.003 152.199C240.747 152.506 241.321 152.935 241.725 153.486C242.128 154.031 242.33 154.673 242.33 155.412C242.33 156.122 242.108 156.71 241.665 157.176C241.222 157.636 240.625 157.966 239.875 158.165V158.301C240.392 158.33 240.858 158.477 241.273 158.744C241.688 159.006 242.017 159.361 242.262 159.81C242.506 160.259 242.628 160.778 242.628 161.369C242.628 162.17 242.398 162.864 241.938 163.449C241.478 164.028 240.844 164.474 240.037 164.787C239.236 165.099 238.318 165.256 237.284 165.256C236.279 165.256 235.378 165.105 234.583 164.804C233.793 164.497 233.165 164.057 232.699 163.483C232.233 162.909 231.986 162.219 231.958 161.412ZM248.344 165.264C247.515 165.264 246.767 165.116 246.103 164.821C245.444 164.52 244.921 164.077 244.534 163.491C244.154 162.906 243.963 162.185 243.963 161.327C243.963 160.588 244.1 159.977 244.373 159.494C244.645 159.011 245.017 158.625 245.489 158.335C245.961 158.045 246.492 157.827 247.083 157.679C247.679 157.526 248.296 157.415 248.932 157.347C249.699 157.267 250.321 157.196 250.799 157.134C251.276 157.065 251.623 156.963 251.838 156.827C252.06 156.685 252.171 156.466 252.171 156.17V156.119C252.171 155.477 251.981 154.98 251.6 154.628C251.219 154.276 250.671 154.099 249.955 154.099C249.199 154.099 248.6 154.264 248.157 154.594C247.719 154.923 247.424 155.312 247.27 155.761L244.39 155.352C244.617 154.557 244.992 153.892 245.515 153.358C246.037 152.818 246.677 152.415 247.432 152.148C248.188 151.875 249.023 151.739 249.938 151.739C250.569 151.739 251.196 151.812 251.821 151.96C252.446 152.108 253.017 152.352 253.534 152.693C254.052 153.028 254.466 153.486 254.779 154.065C255.097 154.645 255.256 155.369 255.256 156.239V165H252.29V163.202H252.188C252 163.565 251.736 163.906 251.395 164.224C251.06 164.537 250.637 164.79 250.125 164.983C249.62 165.17 249.026 165.264 248.344 165.264ZM249.145 162.997C249.765 162.997 250.302 162.875 250.756 162.631C251.211 162.381 251.56 162.051 251.804 161.642C252.054 161.233 252.179 160.787 252.179 160.304V158.761C252.083 158.841 251.918 158.915 251.685 158.983C251.458 159.051 251.202 159.111 250.918 159.162C250.634 159.213 250.353 159.259 250.074 159.298C249.796 159.338 249.554 159.372 249.35 159.401C248.89 159.463 248.478 159.565 248.114 159.707C247.75 159.849 247.463 160.048 247.253 160.304C247.043 160.554 246.938 160.878 246.938 161.276C246.938 161.844 247.145 162.273 247.56 162.562C247.975 162.852 248.503 162.997 249.145 162.997ZM266.537 151.909V154.44H260.895V165H257.878V151.909H266.537ZM271.759 165.264C270.93 165.264 270.182 165.116 269.518 164.821C268.859 164.52 268.336 164.077 267.949 163.491C267.569 162.906 267.378 162.185 267.378 161.327C267.378 160.588 267.515 159.977 267.788 159.494C268.06 159.011 268.432 158.625 268.904 158.335C269.376 158.045 269.907 157.827 270.498 157.679C271.094 157.526 271.711 157.415 272.347 157.347C273.114 157.267 273.736 157.196 274.214 157.134C274.691 157.065 275.038 156.963 275.253 156.827C275.475 156.685 275.586 156.466 275.586 156.17V156.119C275.586 155.477 275.395 154.98 275.015 154.628C274.634 154.276 274.086 154.099 273.37 154.099C272.614 154.099 272.015 154.264 271.572 154.594C271.134 154.923 270.839 155.312 270.685 155.761L267.805 155.352C268.032 154.557 268.407 153.892 268.93 153.358C269.452 152.818 270.092 152.415 270.847 152.148C271.603 151.875 272.438 151.739 273.353 151.739C273.984 151.739 274.611 151.812 275.236 151.96C275.861 152.108 276.432 152.352 276.949 152.693C277.467 153.028 277.881 153.486 278.194 154.065C278.512 154.645 278.671 155.369 278.671 156.239V165H275.705V163.202H275.603C275.415 163.565 275.151 163.906 274.81 164.224C274.475 164.537 274.052 164.79 273.54 164.983C273.035 165.17 272.441 165.264 271.759 165.264ZM272.56 162.997C273.18 162.997 273.717 162.875 274.171 162.631C274.626 162.381 274.975 162.051 275.219 161.642C275.469 161.233 275.594 160.787 275.594 160.304V158.761C275.498 158.841 275.333 158.915 275.1 158.983C274.873 159.051 274.617 159.111 274.333 159.162C274.049 159.213 273.768 159.259 273.489 159.298C273.211 159.338 272.969 159.372 272.765 159.401C272.305 159.463 271.893 159.565 271.529 159.707C271.165 159.849 270.878 160.048 270.668 160.304C270.458 160.554 270.353 160.878 270.353 161.276C270.353 161.844 270.56 162.273 270.975 162.562C271.39 162.852 271.918 162.997 272.56 162.997ZM280.134 168.801V162.46H281.174C281.452 162.244 281.685 161.952 281.873 161.582C282.06 161.207 282.214 160.767 282.333 160.261C282.458 159.75 282.56 159.179 282.64 158.548C282.719 157.912 282.791 157.227 282.853 156.494L283.228 151.909H292.688V162.46H294.717V168.801H291.734V165H283.168V168.801H280.134ZM284.344 162.46H289.739V154.398H285.904L285.7 156.494C285.586 157.881 285.435 159.068 285.248 160.057C285.06 161.045 284.759 161.847 284.344 162.46ZM302.25 165.256C300.972 165.256 299.864 164.974 298.926 164.412C297.989 163.849 297.261 163.062 296.744 162.051C296.233 161.04 295.977 159.858 295.977 158.506C295.977 157.153 296.233 155.969 296.744 154.952C297.261 153.935 297.989 153.145 298.926 152.582C299.864 152.02 300.972 151.739 302.25 151.739C303.529 151.739 304.636 152.02 305.574 152.582C306.512 153.145 307.236 153.935 307.747 154.952C308.264 155.969 308.523 157.153 308.523 158.506C308.523 159.858 308.264 161.04 307.747 162.051C307.236 163.062 306.512 163.849 305.574 164.412C304.636 164.974 303.529 165.256 302.25 165.256ZM302.267 162.784C302.96 162.784 303.54 162.594 304.006 162.213C304.472 161.827 304.818 161.31 305.046 160.662C305.279 160.014 305.395 159.293 305.395 158.497C305.395 157.696 305.279 156.972 305.046 156.324C304.818 155.67 304.472 155.151 304.006 154.764C303.54 154.378 302.96 154.185 302.267 154.185C301.557 154.185 300.966 154.378 300.494 154.764C300.029 155.151 299.679 155.67 299.446 156.324C299.219 156.972 299.105 157.696 299.105 158.497C299.105 159.293 299.219 160.014 299.446 160.662C299.679 161.31 300.029 161.827 300.494 162.213C300.966 162.594 301.557 162.784 302.267 162.784ZM321.596 151.909V165H318.63V151.909H321.596ZM320.207 157.824V160.347C319.872 160.494 319.491 160.628 319.065 160.747C318.644 160.861 318.198 160.952 317.727 161.02C317.261 161.088 316.795 161.122 316.329 161.122C314.579 161.122 313.196 160.73 312.179 159.946C311.167 159.156 310.661 157.926 310.661 156.256V151.892H313.61V156.256C313.61 156.818 313.71 157.27 313.909 157.611C314.108 157.952 314.409 158.202 314.812 158.361C315.215 158.514 315.721 158.591 316.329 158.591C317.011 158.591 317.659 158.523 318.272 158.386C318.886 158.25 319.531 158.062 320.207 157.824ZM333.212 157.176V159.707H326.24V157.176H333.212ZM327.195 151.909V165H324.221V151.909H327.195ZM335.232 151.909V165H332.266V151.909H335.232ZM339.961 156.17H343.822C345.493 156.17 346.785 156.577 347.7 157.389C348.615 158.202 349.075 159.267 349.081 160.585C349.075 161.443 348.865 162.205 348.45 162.869C348.041 163.534 347.444 164.057 346.66 164.438C345.882 164.812 344.936 165 343.822 165H337.873V151.909H340.848V162.469H343.822C344.493 162.469 345.044 162.298 345.476 161.957C345.907 161.611 346.123 161.168 346.123 160.628C346.123 160.06 345.907 159.597 345.476 159.239C345.044 158.881 344.493 158.702 343.822 158.702H339.961V156.17ZM350.709 165V151.909H353.794V165H350.709ZM364.029 161.412L367.915 151.909H370.404L365.111 165H362.955L357.782 151.909H360.245L364.029 161.412ZM359.469 151.909V165H356.495V151.909H359.469ZM368.717 165V151.909H371.665V165H368.717ZM118.319 175.909V178.44H112.677V189H109.66V175.909H118.319ZM118.331 189L118.314 186.46H118.766C119.107 186.46 119.394 186.384 119.627 186.23C119.86 186.077 120.053 185.821 120.206 185.463C120.36 185.099 120.479 184.611 120.564 183.997C120.65 183.384 120.709 182.619 120.743 181.705L120.973 175.909H130.519V189H127.536V178.44H123.777L123.573 182.659C123.522 183.75 123.4 184.696 123.206 185.497C123.019 186.293 122.752 186.949 122.405 187.466C122.064 187.983 121.635 188.369 121.118 188.625C120.601 188.875 119.99 189 119.286 189H118.331ZM134.594 193.909C134.174 193.909 133.785 193.875 133.427 193.807C133.074 193.744 132.793 193.67 132.583 193.585L133.299 191.182C133.748 191.313 134.148 191.375 134.5 191.369C134.853 191.364 135.162 191.253 135.429 191.037C135.702 190.827 135.932 190.474 136.12 189.98L136.384 189.273L131.637 175.909H134.91L137.927 185.795H138.063L141.089 175.909H144.37L139.128 190.585C138.884 191.278 138.56 191.872 138.157 192.366C137.753 192.866 137.259 193.247 136.674 193.509C136.094 193.776 135.401 193.909 134.594 193.909ZM156.516 171.068L157.59 173.062C157.209 173.392 156.783 173.631 156.312 173.778C155.84 173.926 155.286 174.023 154.65 174.068C154.019 174.108 153.269 174.136 152.4 174.153C151.422 174.176 150.624 174.361 150.005 174.707C149.386 175.054 148.911 175.58 148.582 176.284C148.252 176.983 148.036 177.875 147.934 178.96H148.079C148.488 178.159 149.062 177.548 149.8 177.128C150.539 176.707 151.405 176.497 152.4 176.497C153.485 176.497 154.442 176.741 155.272 177.23C156.107 177.713 156.758 178.415 157.224 179.335C157.695 180.256 157.931 181.369 157.931 182.676C157.931 184.023 157.678 185.19 157.172 186.179C156.667 187.162 155.948 187.92 155.016 188.455C154.09 188.989 152.991 189.256 151.718 189.256C150.451 189.256 149.349 188.98 148.411 188.429C147.479 187.872 146.758 187.051 146.246 185.966C145.741 184.875 145.488 183.531 145.488 181.935V180.759C145.488 177.679 146.062 175.381 147.209 173.864C148.357 172.347 150.059 171.574 152.315 171.545C152.985 171.534 153.584 171.531 154.113 171.537C154.647 171.543 155.113 171.517 155.511 171.46C155.908 171.403 156.244 171.273 156.516 171.068ZM151.735 186.784C152.366 186.784 152.911 186.622 153.371 186.298C153.832 185.969 154.184 185.503 154.428 184.901C154.678 184.298 154.803 183.585 154.803 182.761C154.803 181.949 154.678 181.259 154.428 180.69C154.178 180.116 153.823 179.679 153.363 179.378C152.903 179.077 152.354 178.926 151.718 178.926C151.241 178.926 150.812 179.011 150.431 179.182C150.05 179.352 149.726 179.602 149.459 179.932C149.192 180.261 148.988 180.662 148.846 181.134C148.704 181.605 148.627 182.148 148.616 182.761C148.616 183.994 148.894 184.974 149.451 185.702C150.008 186.423 150.769 186.784 151.735 186.784ZM163.05 184.824L168.292 175.909H171.462V189H168.479V180.077L163.255 189H160.076V175.909H163.05V184.824ZM183.142 181.176V183.707H176.171V181.176H183.142ZM177.125 175.909V189H174.151V175.909H177.125ZM185.162 175.909V189H182.196V175.909H185.162ZM191.571 189.264C190.741 189.264 189.994 189.116 189.329 188.821C188.67 188.52 188.147 188.077 187.761 187.491C187.38 186.906 187.19 186.185 187.19 185.327C187.19 184.588 187.326 183.977 187.599 183.494C187.872 183.011 188.244 182.625 188.715 182.335C189.187 182.045 189.718 181.827 190.309 181.679C190.906 181.526 191.522 181.415 192.159 181.347C192.926 181.267 193.548 181.196 194.025 181.134C194.502 181.065 194.849 180.963 195.065 180.827C195.286 180.685 195.397 180.466 195.397 180.17V180.119C195.397 179.477 195.207 178.98 194.826 178.628C194.446 178.276 193.897 178.099 193.181 178.099C192.426 178.099 191.826 178.264 191.383 178.594C190.946 178.923 190.65 179.312 190.497 179.761L187.616 179.352C187.843 178.557 188.218 177.892 188.741 177.358C189.264 176.818 189.903 176.415 190.659 176.148C191.414 175.875 192.25 175.739 193.164 175.739C193.795 175.739 194.423 175.812 195.048 175.96C195.673 176.108 196.244 176.352 196.761 176.693C197.278 177.028 197.693 177.486 198.005 178.065C198.323 178.645 198.482 179.369 198.482 180.239V189H195.517V187.202H195.414C195.227 187.565 194.963 187.906 194.622 188.224C194.286 188.537 193.863 188.79 193.352 188.983C192.846 189.17 192.252 189.264 191.571 189.264ZM192.372 186.997C192.991 186.997 193.528 186.875 193.982 186.631C194.437 186.381 194.786 186.051 195.031 185.642C195.281 185.233 195.406 184.787 195.406 184.304V182.761C195.309 182.841 195.144 182.915 194.911 182.983C194.684 183.051 194.429 183.111 194.144 183.162C193.86 183.213 193.579 183.259 193.301 183.298C193.022 183.338 192.781 183.372 192.576 183.401C192.116 183.463 191.704 183.565 191.34 183.707C190.977 183.849 190.69 184.048 190.48 184.304C190.269 184.554 190.164 184.878 190.164 185.276C190.164 185.844 190.372 186.273 190.786 186.562C191.201 186.852 191.73 186.997 192.372 186.997ZM208.639 185.412L212.525 175.909H215.014L209.721 189H207.565L202.392 175.909H204.855L208.639 185.412ZM204.079 175.909V189H201.105V175.909H204.079ZM213.326 189V175.909H216.275V189H213.326ZM223.655 185.412H226.714C226.743 185.901 226.962 186.278 227.371 186.545C227.78 186.812 228.311 186.946 228.964 186.946C229.629 186.946 230.189 186.801 230.643 186.511C231.104 186.216 231.334 185.77 231.334 185.173C231.334 184.821 231.246 184.511 231.069 184.244C230.893 183.972 230.646 183.761 230.328 183.614C230.01 183.466 229.635 183.392 229.203 183.392H227.2V181.202H229.203C229.845 181.202 230.331 181.054 230.66 180.759C230.996 180.463 231.163 180.091 231.163 179.642C231.163 179.159 230.987 178.767 230.635 178.466C230.288 178.165 229.808 178.014 229.194 178.014C228.581 178.014 228.069 178.153 227.66 178.432C227.257 178.71 227.047 179.068 227.03 179.506H223.987C223.998 178.744 224.226 178.082 224.669 177.52C225.118 176.957 225.72 176.52 226.476 176.207C227.237 175.895 228.095 175.739 229.05 175.739C230.072 175.739 230.956 175.892 231.7 176.199C232.444 176.506 233.018 176.935 233.422 177.486C233.825 178.031 234.027 178.673 234.027 179.412C234.027 180.122 233.805 180.71 233.362 181.176C232.919 181.636 232.322 181.966 231.572 182.165V182.301C232.089 182.33 232.555 182.477 232.97 182.744C233.385 183.006 233.714 183.361 233.959 183.81C234.203 184.259 234.325 184.778 234.325 185.369C234.325 186.17 234.095 186.864 233.635 187.449C233.175 188.028 232.541 188.474 231.734 188.787C230.933 189.099 230.016 189.256 228.981 189.256C227.976 189.256 227.075 189.105 226.28 188.804C225.49 188.497 224.862 188.057 224.396 187.483C223.93 186.909 223.683 186.219 223.655 185.412ZM245.266 181.176V183.707H238.294V181.176H245.266ZM239.249 175.909V189H236.274V175.909H239.249ZM247.285 175.909V189H244.32V175.909H247.285ZM253.694 189.264C252.864 189.264 252.117 189.116 251.453 188.821C250.793 188.52 250.271 188.077 249.884 187.491C249.504 186.906 249.313 186.185 249.313 185.327C249.313 184.588 249.45 183.977 249.722 183.494C249.995 183.011 250.367 182.625 250.839 182.335C251.31 182.045 251.842 181.827 252.433 181.679C253.029 181.526 253.646 181.415 254.282 181.347C255.049 181.267 255.671 181.196 256.149 181.134C256.626 181.065 256.972 180.963 257.188 180.827C257.41 180.685 257.521 180.466 257.521 180.17V180.119C257.521 179.477 257.33 178.98 256.95 178.628C256.569 178.276 256.021 178.099 255.305 178.099C254.549 178.099 253.95 178.264 253.506 178.594C253.069 178.923 252.774 179.312 252.62 179.761L249.739 179.352C249.967 178.557 250.342 177.892 250.864 177.358C251.387 176.818 252.026 176.415 252.782 176.148C253.538 175.875 254.373 175.739 255.288 175.739C255.918 175.739 256.546 175.812 257.171 175.96C257.796 176.108 258.367 176.352 258.884 176.693C259.401 177.028 259.816 177.486 260.129 178.065C260.447 178.645 260.606 179.369 260.606 180.239V189H257.64V187.202H257.538C257.35 187.565 257.086 187.906 256.745 188.224C256.41 188.537 255.987 188.79 255.475 188.983C254.97 189.17 254.376 189.264 253.694 189.264ZM254.495 186.997C255.114 186.997 255.651 186.875 256.106 186.631C256.56 186.381 256.91 186.051 257.154 185.642C257.404 185.233 257.529 184.787 257.529 184.304V182.761C257.433 182.841 257.268 182.915 257.035 182.983C256.808 183.051 256.552 183.111 256.268 183.162C255.984 183.213 255.703 183.259 255.424 183.298C255.146 183.338 254.904 183.372 254.7 183.401C254.239 183.463 253.828 183.565 253.464 183.707C253.1 183.849 252.813 184.048 252.603 184.304C252.393 184.554 252.288 184.878 252.288 185.276C252.288 185.844 252.495 186.273 252.91 186.562C253.325 186.852 253.853 186.997 254.495 186.997ZM272.22 181.176V183.707H265.248V181.176H272.22ZM266.203 175.909V189H263.228V175.909H266.203ZM274.24 175.909V189H271.274V175.909H274.24ZM279.855 184.824L285.097 175.909H288.267V189H285.284V180.077L280.06 189H276.881V175.909H279.855V184.824ZM293.93 184.824L299.172 175.909H302.342V189H299.359V180.077L294.135 189H290.956V175.909H293.93V184.824ZM298.328 171.409H300.638C300.638 172.403 300.277 173.21 299.555 173.83C298.839 174.443 297.868 174.75 296.64 174.75C295.424 174.75 294.456 174.443 293.734 173.83C293.018 173.21 292.663 172.403 292.669 171.409H294.961C294.961 171.818 295.086 172.185 295.336 172.509C295.592 172.827 296.027 172.986 296.64 172.986C297.243 172.986 297.672 172.827 297.927 172.509C298.189 172.19 298.322 171.824 298.328 171.409Z" fill="white"/>
</svg>
